<svg xmlns="http://www.w3.org/2000/svg" viewBox="0 0 1200 800" width="1200" height="800">
  <defs>
    <linearGradient id="bgGrad" x1="0%" y1="0%" x2="100%" y2="100%">
      <stop offset="0%" stop-color="#1a1a2e"/>
      <stop offset="50%" stop-color="#16213e"/>
      <stop offset="100%" stop-color="#0f3460"/>
    </linearGradient>
    <linearGradient id="deskGrad" x1="0%" y1="0%" x2="0%" y2="100%">
      <stop offset="0%" stop-color="#2c1810"/>
      <stop offset="5%" stop-color="#3d2218"/>
      <stop offset="100%" stop-color="#1a0e08"/>
    </linearGradient>
    <radialGradient id="octoBody" cx="40%" cy="35%" r="60%">
      <stop offset="0%" stop-color="#4a4e8a"/>
      <stop offset="40%" stop-color="#373b6e"/>
      <stop offset="100%" stop-color="#1e2040"/>
    </radialGradient>
    <radialGradient id="octoFace" cx="45%" cy="40%" r="55%">
      <stop offset="0%" stop-color="#fff5e6"/>
      <stop offset="60%" stop-color="#f0d9b5"/>
      <stop offset="100%" stop-color="#e0c090"/>
    </radialGradient>
    <radialGradient id="eyeWhite" cx="40%" cy="35%" r="60%">
      <stop offset="0%" stop-color="#ffffff"/>
      <stop offset="100%" stop-color="#d0d0d0"/>
    </radialGradient>
    <linearGradient id="screenGrad" x1="0%" y1="0%" x2="100%" y2="100%">
      <stop offset="0%" stop-color="#0a0a1a"/>
      <stop offset="100%" stop-color="#0d0d24"/>
    </linearGradient>
    <linearGradient id="screenReflect" x1="0%" y1="0%" x2="100%" y2="100%">
      <stop offset="0%" stop-color="rgba(100,180,255,0.08)"/>
      <stop offset="40%" stop-color="rgba(100,180,255,0.02)"/>
      <stop offset="100%" stop-color="rgba(255,255,255,0.0)"/>
    </linearGradient>
    <linearGradient id="glassGrad" x1="0%" y1="0%" x2="100%" y2="100%">
      <stop offset="0%" stop-color="rgba(180,220,255,0.12)"/>
      <stop offset="30%" stop-color="rgba(160,210,255,0.06)"/>
      <stop offset="100%" stop-color="rgba(140,200,255,0.02)"/>
    </linearGradient>
    <linearGradient id="glassEdge" x1="0%" y1="0%" x2="100%" y2="0%">
      <stop offset="0%" stop-color="rgba(200,230,255,0.3)"/>
      <stop offset="50%" stop-color="rgba(200,230,255,0.08)"/>
      <stop offset="100%" stop-color="rgba(200,230,255,0.25)"/>
    </linearGradient>
    <linearGradient id="penGrad" x1="0%" y1="0%" x2="100%" y2="0%">
      <stop offset="0%" stop-color="#c0c0c0"/>
      <stop offset="30%" stop-color="#e8e8e8"/>
      <stop offset="60%" stop-color="#a0a0a0"/>
      <stop offset="100%" stop-color="#707070"/>
    </linearGradient>
    <linearGradient id="kbGrad" x1="0%" y1="0%" x2="0%" y2="100%">
      <stop offset="0%" stop-color="#2a2a3a"/>
      <stop offset="100%" stop-color="#1a1a2a"/>
    </linearGradient>
    <radialGradient id="mouseGrad" cx="40%" cy="35%" r="65%">
      <stop offset="0%" stop-color="#3a3a4a"/>
      <stop offset="100%" stop-color="#1a1a2a"/>
    </radialGradient>
    <filter id="glow" x="-20%" y="-20%" width="140%" height="140%">
      <feGaussianBlur stdDeviation="4" result="blur"/>
      <feMerge><feMergeNode in="blur"/><feMergeNode in="SourceGraphic"/></feMerge>
    </filter>
    <filter id="shadow" x="-10%" y="-10%" width="130%" height="130%">
      <feDropShadow dx="3" dy="5" stdDeviation="6" flood-color="rgba(0,0,0,0.5)"/>
    </filter>
    <filter id="glassShadow" x="-10%" y="-10%" width="130%" height="130%">
      <feDropShadow dx="2" dy="4" stdDeviation="8" flood-color="rgba(100,180,255,0.15)"/>
    </filter>
    <clipPath id="screenClip">
      <path d="M 690,195 Q 870,188 1020,210 L 1020,575 Q 870,595 690,580 Z"/>
    </clipPath>
    <clipPath id="glassClip">
      <path d="M 610,188 Q 780,182 930,205 L 930,570 Q 780,588 610,575 Z"/>
    </clipPath>

    <!-- The doodle path that also drives the pen animation -->
    <path id="doodleTrack1" d="M 668,296 Q 710,268 755,285 Q 795,305 820,255 Q 845,200 875,228 Q 905,258 925,242"/>

    <style>
      @keyframes drawDoodle {
        0% { stroke-dashoffset: 450; }
        40% { stroke-dashoffset: 0; }
        60% { stroke-dashoffset: 0; }
        100% { stroke-dashoffset: 450; }
      }
      @keyframes drawDoodle2 {
        0% { stroke-dashoffset: 600; }
        30% { stroke-dashoffset: 600; }
        60% { stroke-dashoffset: 0; }
        80% { stroke-dashoffset: 0; }
        100% { stroke-dashoffset: 600; }
      }
      @keyframes cursorMove {
        0% { transform: translate(720px, 280px); }
        10% { transform: translate(720px, 280px); }
        20% { transform: translate(850px, 260px); }
        30% { transform: translate(850px, 260px); }
        40% { transform: translate(920px, 380px); }
        50% { transform: translate(920px, 380px); }
        60% { transform: translate(800px, 450px); }
        70% { transform: translate(800px, 450px); }
        80% { transform: translate(760px, 340px); }
        90% { transform: translate(760px, 340px); }
        100% { transform: translate(720px, 280px); }
      }
      @keyframes mouseMove {
        0% { transform: translate(0px, 0px); }
        10% { transform: translate(0px, 0px); }
        20% { transform: translate(8px, -3px); }
        30% { transform: translate(8px, -3px); }
        40% { transform: translate(14px, 5px); }
        50% { transform: translate(14px, 5px); }
        60% { transform: translate(-4px, 8px); }
        70% { transform: translate(-4px, 8px); }
        80% { transform: translate(-6px, 2px); }
        90% { transform: translate(-6px, 2px); }
        100% { transform: translate(0px, 0px); }
      }
      @keyframes blink {
        0%, 95%, 100% { transform: scaleY(1); }
        97% { transform: scaleY(0.1); }
      }
      @keyframes screenFlicker {
        0%, 100% { opacity: 0.03; }
        50% { opacity: 0.06; }
      }
      @keyframes tentacleFollow {
        0% { d: path("M 320,340 Q 380,280 440,260 Q 500,240 560,260 Q 585,290 620,340"); }
        12.5% { d: path("M 320,340 Q 380,280 440,260 Q 500,240 560,260 Q 595,280 648,310"); }
        25% { d: path("M 320,340 Q 380,280 440,260 Q 500,240 560,260 Q 610,268 700,288"); }
        37.5% { d: path("M 320,340 Q 380,280 440,260 Q 500,240 560,260 Q 625,280 745,302"); }
        50% { d: path("M 320,340 Q 380,280 440,260 Q 500,240 560,260 Q 635,275 790,288"); }
        62.5% { d: path("M 320,340 Q 380,280 440,260 Q 500,240 560,260 Q 650,235 830,248"); }
        75% { d: path("M 320,340 Q 380,280 440,260 Q 500,240 560,260 Q 660,225 860,225"); }
        87.5% { d: path("M 320,340 Q 380,280 440,260 Q 500,240 560,260 Q 680,245 898,248"); }
        100% { d: path("M 320,340 Q 380,280 440,260 Q 500,240 560,260 Q 700,250 925,242"); }
      }
      @keyframes tentacleMouseFollow {
        0% { d: path("M 310,400 Q 400,430 500,480 Q 580,520 700,550 Q 800,570 920,580 Q 950,585 970,650"); }
        20% { d: path("M 310,400 Q 400,430 500,480 Q 580,520 700,550 Q 800,570 920,580 Q 950,585 970,650"); }
        25% { d: path("M 310,400 Q 400,430 500,480 Q 580,520 700,550 Q 800,568 920,578 Q 955,582 980,648"); }
        45% { d: path("M 310,400 Q 400,430 500,480 Q 580,520 700,550 Q 800,568 920,578 Q 955,582 980,648"); }
        50% { d: path("M 310,400 Q 400,430 500,480 Q 580,520 700,550 Q 800,572 920,582 Q 945,588 965,655"); }
        70% { d: path("M 310,400 Q 400,430 500,480 Q 580,520 700,550 Q 800,572 920,582 Q 945,588 965,655"); }
        75% { d: path("M 310,400 Q 400,430 500,480 Q 580,520 700,550 Q 800,569 920,578 Q 948,583 966,648"); }
        90% { d: path("M 310,400 Q 400,430 500,480 Q 580,520 700,550 Q 800,569 920,578 Q 948,583 966,648"); }
        100% { d: path("M 310,400 Q 400,430 500,480 Q 580,520 700,550 Q 800,570 920,580 Q 950,585 970,650"); }
      }
      @keyframes waveTent4 {
        0%, 100% { d: path("M 170,440 Q 100,465 70,520 Q 50,555 60,580"); }
        50% { d: path("M 170,440 Q 110,450 80,510 Q 55,545 45,570"); }
      }
      @keyframes waveTent5 {
        0%, 100% { d: path("M 210,475 Q 190,530 170,570 Q 155,600 175,625"); }
        50% { d: path("M 210,475 Q 165,525 150,565 Q 140,595 160,620"); }
      }
      @keyframes waveTent6 {
        0%, 100% { d: path("M 190,300 Q 100,280 60,330 Q 30,370 40,410"); }
        47% { d: path("M 190,300 Q 90,270 50,320 Q 20,360 30,400"); }
      }
      @keyframes tentacleHighlight {
        0% { d: path("M 320,335 Q 380,275 440,255 Q 500,235 560,255 Q 585,285 620,335"); }
        12.5% { d: path("M 320,335 Q 380,275 440,255 Q 500,235 560,255 Q 595,275 648,305"); }
        25% { d: path("M 320,335 Q 380,275 440,255 Q 500,235 560,255 Q 610,263 700,283"); }
        37.5% { d: path("M 320,335 Q 380,275 440,255 Q 500,235 560,255 Q 625,275 745,297"); }
        50% { d: path("M 320,335 Q 380,275 440,255 Q 500,235 560,255 Q 635,270 790,283"); }
        62.5% { d: path("M 320,335 Q 380,275 440,255 Q 500,235 560,255 Q 650,230 830,243"); }
        75% { d: path("M 320,335 Q 380,275 440,255 Q 500,235 560,255 Q 660,220 860,220"); }
        87.5% { d: path("M 320,335 Q 380,275 440,255 Q 500,235 560,255 Q 680,240 898,243"); }
        100% { d: path("M 320,335 Q 380,275 440,255 Q 500,235 560,255 Q 700,245 925,237"); }
      }
      .doodle1 { stroke-dasharray: 450; animation: drawDoodle 5s ease-in-out infinite; }
      .doodle2 { stroke-dasharray: 600; animation: drawDoodle2 5s ease-in-out infinite; }
      .doodle-line { fill: none; stroke-linecap: round; stroke-linejoin: round; }
      .cursor { animation: cursorMove 6s ease-in-out infinite; }
      .mouse-group { animation: mouseMove 6s ease-in-out infinite; }
      .eye-blink { animation: blink 4s ease-in-out infinite; transform-origin: center; }
      .tentacle1-path { animation: tentacleFollow 5s ease-in-out infinite; }
      .tentacle1-highlight { animation: tentacleHighlight 5s ease-in-out infinite; }
      .tentacle2-path { animation: tentacleMouseFollow 6s ease-in-out infinite; }
      .tentacle4 { animation: waveTent4 8s ease-in-out infinite; }
      .tentacle5 { animation: waveTent5 9s ease-in-out infinite; }
      .tentacle6 { animation: waveTent6 7s ease-in-out infinite; }
    </style>
  </defs>

  <!-- ==================== BACKGROUND ==================== -->
  <rect width="1200" height="800" fill="url(#bgGrad)"/>
  <g opacity="0.03">
    <pattern id="grid" width="40" height="40" patternUnits="userSpaceOnUse">
      <path d="M 40 0 L 0 0 0 40" fill="none" stroke="#ffffff" stroke-width="0.5"/>
    </pattern>
    <rect width="1200" height="620" fill="url(#grid)"/>
  </g>
  <ellipse cx="850" cy="380" rx="350" ry="280" fill="rgba(60,120,255,0.04)"/>

  <!-- ==================== DESK SURFACE ==================== -->
  <path d="M 0,620 L 1200,620 L 1200,800 L 0,800 Z" fill="url(#deskGrad)"/>
  <line x1="0" y1="620" x2="1200" y2="620" stroke="rgba(255,255,255,0.06)" stroke-width="2"/>

  <!-- ==================== KEYBOARD ==================== -->
  <g filter="url(#shadow)">
    <path d="M 580,660 L 940,650 L 960,690 L 560,700 Z" fill="url(#kbGrad)" stroke="rgba(255,255,255,0.05)" stroke-width="1"/>
    <g fill="#3a3a4a" opacity="0.8">
      <rect x="600" y="668" width="22" height="14" rx="2" transform="skewX(3)"/>
      <rect x="626" y="667" width="22" height="14" rx="2" transform="skewX(3)"/>
      <rect x="652" y="666" width="22" height="14" rx="2" transform="skewX(3)"/>
      <rect x="678" y="665" width="22" height="14" rx="2" transform="skewX(3)"/>
      <rect x="704" y="664" width="22" height="14" rx="2" transform="skewX(3)"/>
      <rect x="730" y="663" width="22" height="14" rx="2" transform="skewX(3)"/>
      <rect x="756" y="662" width="22" height="14" rx="2" transform="skewX(3)"/>
      <rect x="782" y="661" width="22" height="14" rx="2" transform="skewX(3)"/>
      <rect x="808" y="660" width="22" height="14" rx="2" transform="skewX(3)"/>
      <rect x="834" y="659" width="22" height="14" rx="2" transform="skewX(3)"/>
      <rect x="860" y="658" width="22" height="14" rx="2" transform="skewX(3)"/>
    </g>
  </g>

  <!-- ==================== MOUSE ==================== -->
  <g class="mouse-group" filter="url(#shadow)">
    <path d="M 950,650 Q 970,630 990,650 Q 1000,670 990,690 Q 970,700 950,690 Q 940,670 950,650 Z" fill="url(#mouseGrad)" stroke="rgba(255,255,255,0.05)" stroke-width="1"/>
    <line x1="970" y1="645" x2="970" y2="685" stroke="rgba(255,255,255,0.06)" stroke-width="1"/>
    <ellipse cx="970" cy="660" rx="3" ry="5" fill="#4a4a5a" stroke="rgba(255,255,255,0.1)" stroke-width="0.5"/>
    <!-- Mouse cable -->
    <path d="M 970,650 Q 960,640 1000,630" fill="none" stroke="#2a2a3a" stroke-width="2" stroke-linecap="round"/>
  </g>

  <!-- ==================== MONITOR STAND ==================== -->
  <g filter="url(#shadow)">
    <ellipse cx="930" cy="620" rx="70" ry="12" fill="#15152a" stroke="rgba(255,255,255,0.05)" stroke-width="1"/>
    <path d="M 910,620 L 920,540 L 940,540 L 950,620 Z" fill="#1a1a30" stroke="rgba(255,255,255,0.04)" stroke-width="1"/>
    <path d="M 920,540 L 925,620" stroke="rgba(255,255,255,0.06)" stroke-width="1"/>
  </g>

  <!-- ==================== MONITOR BODY ==================== -->
  <g filter="url(#shadow)">
    <path d="M 680,185 Q 860,176 1030,200 L 1060,205 L 1060,590 L 1030,595 Q 860,615 680,595 Z" fill="#0d0d1a" stroke="rgba(255,255,255,0.06)" stroke-width="1.5"/>
    <path d="M 1030,200 L 1060,205 L 1060,590 L 1030,595 Z" fill="#080812" stroke="rgba(255,255,255,0.03)" stroke-width="0.5"/>
    <path d="M 680,185 Q 860,176 1030,200 L 1060,205 L 1030,200 Z" fill="#121224"/>
    <path d="M 690,195 Q 870,188 1020,210 L 1020,575 Q 870,595 690,580 Z" fill="url(#screenGrad)" stroke="rgba(255,255,255,0.08)" stroke-width="1"/>
  </g>

  <!-- ==================== MONITOR SCREEN CONTENT ==================== -->
  <g clip-path="url(#screenClip)">
    <rect x="680" y="190" width="350" height="400" fill="rgba(20,40,80,0.3)"/>
    <rect x="680" y="190" width="350" height="400" fill="rgba(30,60,110,0.15)"/>

    <!-- Window 1: Code Editor -->
    <g transform="translate(710, 220)">
      <rect x="0" y="0" width="140" height="180" rx="4" fill="rgba(30,30,50,0.85)" stroke="rgba(255,255,255,0.1)" stroke-width="0.5"/>
      <rect x="0" y="0" width="140" height="20" rx="4" fill="rgba(40,40,65,0.9)"/>
      <rect x="0" y="10" width="140" height="10" fill="rgba(40,40,65,0.9)"/>
      <circle cx="12" cy="10" r="4" fill="#ff5f56"/>
      <circle cx="24" cy="10" r="4" fill="#ffbd2e"/>
      <circle cx="36" cy="10" r="4" fill="#27c93f"/>
      <g opacity="0.6">
        <rect x="10" y="30" width="60" height="3" rx="1.5" fill="#ff79c6"/>
        <rect x="10" y="38" width="80" height="3" rx="1.5" fill="#6272a4"/>
        <rect x="10" y="46" width="40" height="3" rx="1.5" fill="#8be9fd"/>
        <rect x="15" y="54" width="70" height="3" rx="1.5" fill="#f8f8f2"/>
        <rect x="15" y="62" width="55" height="3" rx="1.5" fill="#ffb86c"/>
        <rect x="10" y="70" width="90" height="3" rx="1.5" fill="#6272a4"/>
        <rect x="15" y="78" width="65" height="3" rx="1.5" fill="#50fa7b"/>
        <rect x="15" y="86" width="45" height="3" rx="1.5" fill="#f8f8f2"/>
        <rect x="10" y="94" width="80" height="3" rx="1.5" fill="#ff79c6"/>
        <rect x="10" y="102" width="50" height="3" rx="1.5" fill="#6272a4"/>
        <rect x="15" y="110" width="70" height="3" rx="1.5" fill="#8be9fd"/>
        <rect x="10" y="118" width="85" height="3" rx="1.5" fill="#f8f8f2"/>
        <rect x="20" y="126" width="60" height="3" rx="1.5" fill="#ffb86c"/>
        <rect x="10" y="134" width="40" height="3" rx="1.5" fill="#6272a4"/>
        <rect x="10" y="142" width="75" height="3" rx="1.5" fill="#50fa7b"/>
        <rect x="10" y="150" width="60" height="3" rx="1.5" fill="#f8f8f2"/>
        <rect x="15" y="158" width="40" height="3" rx="1.5" fill="#ff79c6"/>
      </g>
      <rect x="10" y="150" width="2" height="14" fill="#50fa7b" opacity="0.7">
        <animate attributeName="opacity" values="0.7;0.1;0.7" dur="1s" repeatCount="indefinite"/>
      </rect>
    </g>

    <!-- Window 2: Design/Tool Palette -->
    <g transform="translate(870, 240)">
      <rect x="0" y="0" width="120" height="140" rx="4" fill="rgba(35,35,55,0.85)" stroke="rgba(255,255,255,0.1)" stroke-width="0.5"/>
      <rect x="0" y="0" width="120" height="18" rx="4" fill="rgba(45,45,70,0.9)"/>
      <rect x="0" y="9" width="120" height="9" fill="rgba(45,45,70,0.9)"/>
      <rect x="10" y="28" width="20" height="20" rx="3" fill="rgba(100,180,255,0.3)"/>
      <rect x="36" y="28" width="20" height="20" rx="3" fill="rgba(100,255,180,0.2)"/>
      <rect x="62" y="28" width="20" height="20" rx="3" fill="rgba(255,180,100,0.2)"/>
      <rect x="88" y="28" width="20" height="20" rx="3" fill="rgba(255,100,180,0.2)"/>
      <rect x="10" y="56" width="100" height="12" rx="2" fill="rgba(255,255,255,0.05)"/>
      <rect x="10" y="56" width="25" height="12" rx="2" fill="#ff6b6b"/>
      <rect x="35" y="56" width="25" height="12" rx="2" fill="#4ecdc4"/>
      <rect x="60" y="56" width="25" height="12" rx="2" fill="#45b7d1"/>
      <rect x="85" y="56" width="25" height="12" rx="2" fill="#96ceb4"/>
      <rect x="10" y="76" width="100" height="4" rx="2" fill="rgba(255,255,255,0.1)"/>
      <circle cx="45" cy="78" r="4" fill="rgba(100,180,255,0.6)"/>
      <rect x="10" y="88" width="100" height="4" rx="2" fill="rgba(255,255,255,0.1)"/>
      <circle cx="70" cy="90" r="4" fill="rgba(100,180,255,0.6)"/>
      <rect x="10" y="100" width="100" height="4" rx="2" fill="rgba(255,255,255,0.1)"/>
      <circle cx="30" cy="102" r="4" fill="rgba(100,180,255,0.6)"/>
    </g>

    <!-- Window 3: Terminal -->
    <g transform="translate(720, 420)">
      <rect x="0" y="0" width="160" height="90" rx="4" fill="rgba(20,20,40,0.9)" stroke="rgba(255,255,255,0.08)" stroke-width="0.5"/>
      <rect x="0" y="0" width="160" height="18" rx="4" fill="rgba(35,35,55,0.9)"/>
      <rect x="0" y="9" width="160" height="9" fill="rgba(35,35,55,0.9)"/>
      <text x="10" y="13" font-family="monospace" font-size="8" fill="#6272a4">terminal</text>
      <g opacity="0.7">
        <rect x="10" y="26" width="140" height="2" rx="1" fill="#6272a4"/>
        <text x="10" y="38" font-family="monospace" font-size="8" fill="#50fa7b">$ npm run dev</text>
        <text x="10" y="50" font-family="monospace" font-size="8" fill="#f8f8f2">  building...</text>
        <text x="10" y="62" font-family="monospace" font-size="8" fill="#50fa7b">  ✓ ready</text>
        <text x="10" y="74" font-family="monospace" font-size="8" fill="#f8f8f2">$</text>
        <rect x="22" y="72" width="2" height="10" fill="#50fa7b" opacity="0.7">
          <animate attributeName="opacity" values="0.7;0.1;0.7" dur="1.2s" repeatCount="indefinite"/>
        </rect>
      </g>
    </g>

    <!-- Status bar / dock -->
    <g transform="translate(780, 520)">
      <rect x="0" y="0" width="120" height="16" rx="8" fill="rgba(255,255,255,0.06)"/>
      <circle cx="20" cy="8" r="3" fill="#50fa7b"/>
      <circle cx="40" cy="8" r="3" fill="#ffb86c"/>
      <circle cx="60" cy="8" r="3" fill="#ff79c6"/>
      <rect x="80" y="5" width="30" height="6" rx="3" fill="rgba(255,255,255,0.08)"/>
    </g>

    <path d="M 690,195 Q 870,188 1020,210 L 1020,575 Q 870,595 690,580 Z" fill="url(#screenReflect)"/>
    <g opacity="0.015">
      <pattern id="scanlines" width="1" height="3" patternUnits="userSpaceOnUse">
        <rect width="1" height="1" fill="#ffffff"/>
      </pattern>
      <rect x="680" y="190" width="350" height="400" fill="url(#scanlines)"/>
    </g>

    <!-- Animated Cursor on screen -->
    <g class="cursor" filter="url(#glow)">
      <path d="M 0,0 L 0,20 L 4,16 L 8,24 L 10,23 L 6,15 L 12,14 Z" fill="#ffffff" opacity="0.9"/>
      <path d="M 1,1 L 1,18 L 5,14 L 9,22 L 9.5,21.5 L 5.5,13.5 L 11,12.5 Z" fill="#000000" opacity="0.3"/>
    </g>

    <path d="M 690,195 Q 870,188 1020,210 L 1020,575 Q 870,595 690,580 Z" fill="none" stroke="rgba(100,180,255,0.08)" stroke-width="2"/>
  </g>

  <!-- ==================== GLASS PANEL ==================== -->
  <g filter="url(#glassShadow)">
    <path d="M 610,188 Q 780,182 930,205 L 930,570 Q 780,588 610,575 Z" fill="url(#glassGrad)" stroke="url(#glassEdge)" stroke-width="1.5"/>
    <path d="M 610,188 Q 780,182 930,205" fill="none" stroke="rgba(200,230,255,0.25)" stroke-width="1.5"/>
    <path d="M 630,220 L 640,560" stroke="rgba(200,230,255,0.06)" stroke-width="20"/>
    <path d="M 700,200 L 710,570" stroke="rgba(200,230,255,0.04)" stroke-width="15"/>
    <path d="M 850,195 L 855,575" stroke="rgba(200,230,255,0.03)" stroke-width="10"/>
    <path d="M 610,188 L 605,190 L 605,577 L 610,575 Z" fill="rgba(180,220,255,0.2)"/>

    <!-- Glass Doodle / Drawing -->
    <g clip-path="url(#glassClip)">
      <!-- Doodle 1: Flowing curve - starts at pen tip (668,296) -->
      <use href="#doodleTrack1" class="doodle-line doodle1" stroke="#ff6b6b" stroke-width="3" opacity="0.9"/>

      <!-- Doodle 2: Spiral / swirl -->
      <path class="doodle-line doodle2" d="M 660,480 Q 690,440 730,460 Q 770,480 790,440 Q 810,400 850,420 Q 880,440 900,410" stroke="#4ecdc4" stroke-width="3" opacity="0.9"/>

      <!-- Stars popping up -->
      <g opacity="0.7">
        <path d="M 770,350 L 775,360 L 785,362 L 775,368 L 778,378 L 770,372 L 762,378 L 765,368 L 755,362 L 765,360 Z" fill="#ffd93d" opacity="0.8">
          <animate attributeName="opacity" values="0;0;0.8;0.8;0" dur="5s" repeatCount="indefinite"/>
        </path>
        <path d="M 890,280 L 893,286 L 900,288 L 895,293 L 897,300 L 890,296 L 883,300 L 885,293 L 880,288 L 887,286 Z" fill="#ffd93d" opacity="0.8">
          <animate attributeName="opacity" values="0;0;0;0.8;0.8;0" dur="5s" repeatCount="indefinite"/>
        </path>
      </g>

      <!-- Sparkle dots -->
      <circle cx="720" cy="270" r="3" fill="#ff9ff3" opacity="0.8">
        <animate attributeName="opacity" values="0;0.8;0" dur="4s" repeatCount="indefinite"/>
      </circle>
      <circle cx="900" cy="350" r="2" fill="#ff9ff3" opacity="0.8">
        <animate attributeName="opacity" values="0.8;0;0.8" dur="3s" repeatCount="indefinite"/>
      </circle>
      <circle cx="680" cy="450" r="2.5" fill="#feca57" opacity="0.8">
        <animate attributeName="opacity" values="0;0.8;0" dur="3.5s" repeatCount="indefinite"/>
      </circle>
    </g>
  </g>

  <!-- ==================== OCTOPUS ==================== -->

  <!-- ====== TENTACLES (behind the body) ====== -->

  <!-- Tentacle 4: FREE - left side, waving -->
  <g filter="url(#shadow)" opacity="0.85">
    <path class="tentacle4" d="M 170,440 Q 100,465 70,520 Q 50,555 60,580" fill="none" stroke="url(#octoBody)" stroke-width="28" stroke-linecap="round"/>
    <path class="tentacle4" d="M 170,435 Q 100,460 70,515 Q 50,550 60,575" fill="none" stroke="rgba(255,255,255,0.06)" stroke-width="10" stroke-linecap="round"/>
    <g fill="rgba(255,255,255,0.08)">
      <ellipse cx="95" cy="480" rx="4" ry="2.5"/>
      <ellipse cx="75" cy="530" rx="4" ry="2.5"/>
    </g>
  </g>

  <!-- Tentacle 5: FREE - bottom center, waving -->
  <g filter="url(#shadow)" opacity="0.85">
    <path class="tentacle5" d="M 210,475 Q 190,530 170,570 Q 155,600 175,625" fill="none" stroke="url(#octoBody)" stroke-width="30" stroke-linecap="round"/>
    <path class="tentacle5" d="M 210,470 Q 190,525 170,565 Q 155,595 175,620" fill="none" stroke="rgba(255,255,255,0.06)" stroke-width="11" stroke-linecap="round"/>
    <g fill="rgba(255,255,255,0.08)">
      <ellipse cx="195" cy="535" rx="4" ry="2.5"/>
      <ellipse cx="178" cy="585" rx="4" ry="2.5"/>
    </g>
  </g>

  <!-- Tentacle 6: FREE - top left, waving -->
  <g filter="url(#shadow)" opacity="0.85">
    <path class="tentacle6" d="M 190,300 Q 100,280 60,330 Q 30,370 40,410" fill="none" stroke="url(#octoBody)" stroke-width="26" stroke-linecap="round"/>
    <path class="tentacle6" d="M 190,295 Q 100,275 60,325 Q 30,365 40,405" fill="none" stroke="rgba(255,255,255,0.05)" stroke-width="9" stroke-linecap="round"/>
    <g fill="rgba(255,255,255,0.08)">
      <ellipse cx="95" cy="310" rx="4" ry="2.5"/>
      <ellipse cx="50" cy="370" rx="4" ry="2.5"/>
    </g>
  </g>

  <!-- Tentacle 1: Upper - holding the PEN, reaching to the glass -->
  <g filter="url(#shadow)">
    <path class="tentacle1-path" d="M 320,340 Q 380,280 440,260 Q 500,240 560,260 Q 585,290 620,340" fill="none" stroke="url(#octoBody)" stroke-width="32" stroke-linecap="round"/>
    <path class="tentacle1-highlight" d="M 320,335 Q 380,275 440,255 Q 500,235 560,255 Q 585,285 620,335" fill="none" stroke="rgba(255,255,255,0.08)" stroke-width="12" stroke-linecap="round"/>
    <g fill="rgba(255,255,255,0.12)">
      <ellipse cx="400" cy="268" rx="5" ry="3" transform="rotate(-20,400,268)"/>
      <ellipse cx="440" cy="258" rx="5" ry="3" transform="rotate(-10,440,258)"/>
      <ellipse cx="480" cy="252" rx="5" ry="3" transform="rotate(-5,480,252)"/>
      <ellipse cx="520" cy="252" rx="5" ry="3"/>
      <ellipse cx="560" cy="258" rx="5" ry="3" transform="rotate(5,560,258)"/>
    </g>
  </g>

  <!-- Pen + Animated tip group: follows the exact doodle path using animateMotion -->
  <g>
    <animateMotion dur="5s" repeatCount="indefinite" rotate="auto">
      <mpath href="#doodleTrack1"/>
    </animateMotion>
    <!-- Pen drawn with tip at (0,0) = the path start point -->
    <g filter="url(#shadow)" transform="rotate(-10)">
      <path d="M -48,-65 L -18,-55 L -23,-45 L -53,-55 Z" fill="url(#penGrad)" stroke="rgba(255,255,255,0.1)" stroke-width="0.5"/>
      <path d="M -18,-55 L -6,-50 L -10,-47 L -23,-45 Z" fill="#888" stroke="rgba(0,0,0,0.3)" stroke-width="0.5"/>
      <path d="M -6,-50 L 0,-48 L -4,-47 Z" fill="#ff6b6b"/>
      <rect x="-50" y="-67" width="3" height="14" rx="1.5" fill="#999"/>
      <path d="M -50,-63 L -37,-59" stroke="rgba(255,255,255,0.3)" stroke-width="1.5"/>
    </g>
  </g>

  <!-- Tentacle 2: Middle - on the MOUSE (animates with cursor) -->
  <g filter="url(#shadow)">
    <path class="tentacle2-path" d="M 310,400 Q 400,430 500,480 Q 580,520 700,550 Q 800,570 920,580 Q 950,585 970,650" fill="none" stroke="url(#octoBody)" stroke-width="36" stroke-linecap="round"/>
    <!-- Mouse tentacle highlight animates -->
    <path class="tentacle2-path" d="M 310,395 Q 400,425 500,475 Q 580,515 700,545 Q 800,565 920,575 Q 950,580 970,645" fill="none" stroke="rgba(255,255,255,0.06)" stroke-width="14" stroke-linecap="round"/>
    <g fill="rgba(255,255,255,0.1)">
      <ellipse cx="400" cy="438" rx="5" ry="3" transform="rotate(10,400,438)"/>
      <ellipse cx="460" cy="465" rx="6" ry="3.5" transform="rotate(15,460,465)"/>
      <ellipse cx="520" cy="495" rx="6" ry="3.5" transform="rotate(10,520,495)"/>
      <ellipse cx="590" cy="525" rx="6" ry="3.5" transform="rotate(5,590,525)"/>
      <ellipse cx="660" cy="545" rx="5" ry="3" transform="rotate(5,660,545)"/>
      <ellipse cx="730" cy="558" rx="5" ry="3"/>
      <ellipse cx="800" cy="568" rx="5" ry="3"/>
    </g>
  </g>

  <!-- Tentacle 3: Lower - on the KEYBOARD -->
  <g filter="url(#shadow)">
    <path d="M 300,440 Q 360,500 420,530 Q 480,560 540,580 Q 600,600 660,620 Q 720,640 780,650 Q 840,655 900,660" fill="none" stroke="url(#octoBody)" stroke-width="34" stroke-linecap="round"/>
    <path d="M 300,435 Q 360,495 420,525 Q 480,555 540,575 Q 600,595 660,615 Q 720,635 780,645 Q 840,650 900,655" fill="none" stroke="rgba(255,255,255,0.06)" stroke-width="12" stroke-linecap="round"/>
    <g fill="rgba(255,255,255,0.1)">
      <ellipse cx="380" cy="505" rx="5" ry="3" transform="rotate(20,380,505)"/>
      <ellipse cx="440" cy="538" rx="6" ry="3.5" transform="rotate(15,440,538)"/>
      <ellipse cx="510" cy="565" rx="6" ry="3.5" transform="rotate(10,510,565)"/>
      <ellipse cx="580" cy="592" rx="5" ry="3" transform="rotate(5,580,592)"/>
      <ellipse cx="650" cy="613" rx="5" ry="3"/>
      <ellipse cx="720" cy="632" rx="5" ry="3"/>
      <ellipse cx="790" cy="647" rx="5" ry="3"/>
    </g>
  </g>

  <!-- ====== OCTOPUS MAIN BODY ====== -->
  <g filter="url(#shadow)">
    <path d="M 150,250 C 120,140 440,140 440,250 C 440,390 400,490 280,500 C 160,490 150,390 150,250 Z" fill="url(#octoBody)"/>
    <path d="M 175,250 C 155,170 405,170 405,250 C 405,360 370,460 280,470 C 190,460 175,360 175,250 Z" fill="rgba(255,255,255,0.04)"/>
    <ellipse cx="280" cy="200" rx="60" ry="20" fill="rgba(255,255,255,0.06)"/>
  </g>

  <!-- ====== OCTOPUS FACE ====== -->
  <g filter="url(#shadow)">
    <path d="M 185,290 C 180,230 380,230 380,290 C 385,370 365,435 280,445 C 195,435 185,370 185,290 Z" fill="url(#octoFace)"/>
    <ellipse cx="205" cy="370" rx="28" ry="16" fill="rgba(255,150,150,0.15)"/>
    <ellipse cx="355" cy="370" rx="28" ry="16" fill="rgba(255,150,150,0.15)"/>
  </g>

  <!-- ====== OCTOPUS EYES ====== -->
  <g class="eye-blink">
    <ellipse cx="215" cy="315" rx="34" ry="38" fill="url(#eyeWhite)" filter="url(#shadow)"/>
    <ellipse cx="226" cy="317" rx="17" ry="19" fill="#2a1a0a"/>
    <ellipse cx="220" cy="310" rx="7" ry="6" fill="rgba(255,255,255,0.4)"/>
    <circle cx="210" cy="305" r="2.5" fill="rgba(255,255,255,0.2)"/>
    <path d="M 181,315 Q 215,288 249,315" fill="none" stroke="rgba(0,0,0,0.08)" stroke-width="3"/>
  </g>
  <g class="eye-blink">
    <ellipse cx="345" cy="315" rx="34" ry="38" fill="url(#eyeWhite)" filter="url(#shadow)"/>
    <ellipse cx="356" cy="317" rx="17" ry="19" fill="#2a1a0a"/>
    <ellipse cx="350" cy="310" rx="7" ry="6" fill="rgba(255,255,255,0.4)"/>
    <circle cx="340" cy="305" r="2.5" fill="rgba(255,255,255,0.2)"/>
    <path d="M 311,315 Q 345,288 379,315" fill="none" stroke="rgba(0,0,0,0.08)" stroke-width="3"/>
  </g>

  <!-- Mouth -->
  <path d="M 250,395 Q 280,415 310,395" fill="none" stroke="#8b6f5e" stroke-width="3" stroke-linecap="round" opacity="0.6"/>

  <!-- Lower body -->
  <g filter="url(#shadow)">
    <path d="M 200,440 Q 280,500 360,440 Q 340,490 280,510 Q 220,490 200,440 Z" fill="url(#octoBody)"/>
  </g>

  <!-- ==================== LIGHTING / ATMOSPHERE ==================== -->
  <g opacity="0.04">
    <polygon points="690,300 500,250 500,400" fill="rgba(100,180,255,0.5)"/>
    <polygon points="690,400 480,350 480,500" fill="rgba(100,180,255,0.3)"/>
  </g>

  <g opacity="0.15">
    <circle cx="500" cy="200" r="1.5" fill="#4ecdc4">
      <animate attributeName="opacity" values="0;0.5;0" dur="4s" repeatCount="indefinite"/>
      <animate attributeName="cy" values="200;180;200" dur="4s" repeatCount="indefinite"/>
    </circle>
    <circle cx="550" cy="350" r="1" fill="#ff6b6b">
      <animate attributeName="opacity" values="0.5;0;0.5" dur="3s" repeatCount="indefinite"/>
      <animate attributeName="cy" values="350;330;350" dur="3s" repeatCount="indefinite"/>
    </circle>
    <circle cx="450" cy="450" r="1.2" fill="#ffd93d">
      <animate attributeName="opacity" values="0;0.4;0" dur="5s" repeatCount="indefinite"/>
      <animate attributeName="cy" values="450;430;450" dur="5s" repeatCount="indefinite"/>
    </circle>
  </g>

  <!-- Vignette -->
  <radialGradient id="vignette" cx="50%" cy="50%" r="60%">
    <stop offset="0%" stop-color="rgba(0,0,0,0)"/>
    <stop offset="100%" stop-color="rgba(0,0,0,0.4)"/>
  </radialGradient>
  <rect width="1200" height="800" fill="url(#vignette)" pointer-events="none"/>
</svg>
