<svg xmlns="http://www.w3.org/2000/svg" viewBox="0 0 1200 800" width="1200" height="800">
  <defs>
    <linearGradient id="bgGrad" x1="0%" y1="0%" x2="100%" y2="100%">
      <stop offset="0%" stop-color="#1a1a2e"/> <stop offset="50%" stop-color="#16213e"/> <stop offset="100%" stop-color="#0f3460"/>
    </linearGradient>
    <linearGradient id="deskGrad" x1="0%" y1="0%" x2="0%" y2="100%">
      <stop offset="0%" stop-color="#2c1810"/> <stop offset="5%" stop-color="#3d2218"/> <stop offset="100%" stop-color="#1a0e08"/>
    </linearGradient>
    <linearGradient id="screenGrad" x1="0%" y1="0%" x2="100%" y2="100%">
      <stop offset="0%" stop-color="#0a0a1a"/> <stop offset="100%" stop-color="#0d0d24"/>
    </linearGradient>
    <linearGradient id="screenReflect" x1="0%" y1="0%" x2="100%" y2="100%">
      <stop offset="0%" stop-color="rgba(100,180,255,0.08)"/> <stop offset="40%" stop-color="rgba(100,180,255,0.02)"/> <stop offset="100%" stop-color="rgba(255,255,255,0.0)"/>
    </linearGradient>
    <linearGradient id="glassGrad" x1="0%" y1="0%" x2="100%" y2="100%">
      <stop offset="0%" stop-color="rgba(180,220,255,0.12)"/> <stop offset="30%" stop-color="rgba(160,210,255,0.06)"/> <stop offset="100%" stop-color="rgba(140,200,255,0.02)"/>
    </linearGradient>
    <linearGradient id="glassEdge" x1="0%" y1="0%" x2="100%" y2="0%">
      <stop offset="0%" stop-color="rgba(200,230,255,0.3)"/> <stop offset="50%" stop-color="rgba(200,230,255,0.08)"/> <stop offset="100%" stop-color="rgba(200,230,255,0.25)"/>
    </linearGradient>
    <linearGradient id="penGrad" x1="0%" y1="0%" x2="100%" y2="0%">
      <stop offset="0%" stop-color="#c0c0c0"/> <stop offset="30%" stop-color="#e8e8e8"/> <stop offset="60%" stop-color="#a0a0a0"/> <stop offset="100%" stop-color="#707070"/>
    </linearGradient>
    <linearGradient id="kbGrad" x1="0%" y1="0%" x2="0%" y2="100%">
      <stop offset="0%" stop-color="#2a2a3a"/> <stop offset="100%" stop-color="#1a1a2a"/>
    </linearGradient>
    <radialGradient id="mouseGrad" cx="40%" cy="35%" r="65%">
      <stop offset="0%" stop-color="#3a3a4a"/> <stop offset="100%" stop-color="#1a1a2a"/>
    </radialGradient>
    <filter id="glow" x="-20%" y="-20%" width="140%" height="140%">
      <feGaussianBlur stdDeviation="4" result="blur"/>
      <feMerge><feMergeNode in="blur"/><feMergeNode in="SourceGraphic"/></feMerge>
    </filter>
    <filter id="shadow" x="-15%" y="-15%" width="130%" height="130%">
      <feDropShadow dx="3" dy="5" stdDeviation="6" flood-color="rgba(0,0,0,0.5)"/>
    </filter>
    <filter id="glassShadow" x="-10%" y="-10%" width="130%" height="130%">
      <feDropShadow dx="2" dy="4" stdDeviation="8" flood-color="rgba(100,180,255,0.15)"/>
    </filter>
    <filter id="vignette"><feGaussianBlur stdDeviation="60"/></filter>
    <clipPath id="screenClip"><path d="M 690,195 Q 870,188 1020,210 L 1020,575 Q 870,595 690,580 Z"/></clipPath>
    <clipPath id="glassClip"><path d="M 610,188 Q 780,182 930,205 L 930,570 Q 780,588 610,575 Z"/></clipPath>
    <!-- Mask: keeps the Octocat head, hides the original tentacles -->
    <clipPath id="headClip">
      <path d="M 50,0 L 550,0 L 550,360 Q 310,460 50,360 Z"/>
    </clipPath>
    <path id="doodleTrack1" d="M 668,296 Q 710,268 755,285 Q 795,305 820,255 Q 845,200 875,228 Q 905,258 925,242"/>

    <style>
      @keyframes drawDoodle {
        0% { stroke-dashoffset: 450; } 40% { stroke-dashoffset: 0; } 60% { stroke-dashoffset: 0; } 100% { stroke-dashoffset: 450; }
      }
      @keyframes drawDoodle2 {
        0% { stroke-dashoffset: 600; } 30% { stroke-dashoffset: 600; } 60% { stroke-dashoffset: 0; } 80% { stroke-dashoffset: 0; } 100% { stroke-dashoffset: 600; }
      }
      @keyframes cursorMove {
        0% { transform: translate(720px, 280px); } 10% { transform: translate(720px, 280px); }
        20% { transform: translate(850px, 260px); } 30% { transform: translate(850px, 260px); }
        40% { transform: translate(920px, 380px); } 50% { transform: translate(920px, 380px); }
        60% { transform: translate(800px, 450px); } 70% { transform: translate(800px, 450px); }
        80% { transform: translate(760px, 340px); } 90% { transform: translate(760px, 340px); }
        100% { transform: translate(720px, 280px); }
      }
      @keyframes mouseMove {
        0% { transform: translate(0px, 0px); } 10% { transform: translate(0px, 0px); }
        20% { transform: translate(8px, -3px); } 30% { transform: translate(8px, -3px); }
        40% { transform: translate(14px, 5px); } 50% { transform: translate(14px, 5px); }
        60% { transform: translate(-4px, 8px); } 70% { transform: translate(-4px, 8px); }
        80% { transform: translate(-6px, 2px); } 90% { transform: translate(-6px, 2px); }
        100% { transform: translate(0px, 0px); }
      }
      @keyframes blink { 0%, 95%, 100% { transform: scaleY(1); } 96% { transform: scaleY(0.1); } }
      @keyframes tent1 {
        0% { d: path("M 370,440 C 420,380 480,340 530,310 C 580,290 630,288 668,296"); }
        12.5% { d: path("M 370,440 C 420,380 480,340 530,310 C 580,290 636,281 668,296"); }
        25% { d: path("M 370,440 C 420,380 480,340 530,310 C 580,290 676,280 700,286"); }
        37.5% { d: path("M 370,440 C 420,380 480,340 530,310 C 580,290 688,287 738,291"); }
        50% { d: path("M 370,440 C 420,380 480,340 530,310 C 580,290 700,280 778,288"); }
        62.5% { d: path("M 370,440 C 420,380 480,340 530,310 C 580,290 710,258 828,248"); }
        75% { d: path("M 370,440 C 420,380 480,340 530,310 C 580,290 720,238 860,230"); }
        87.5% { d: path("M 370,440 C 420,380 480,340 530,310 C 580,290 730,242 898,248"); }
        100% { d: path("M 370,440 C 420,380 480,340 530,310 C 580,290 748,250 925,242"); }
      }
      @keyframes tent1h {
        0% { d: path("M 370,435 C 420,375 480,335 530,305 C 580,285 630,283 668,291"); }
        12.5% { d: path("M 370,435 C 420,375 480,335 530,305 C 580,285 636,276 668,291"); }
        25% { d: path("M 370,435 C 420,375 480,335 530,305 C 580,285 676,275 700,281"); }
        37.5% { d: path("M 370,435 C 420,375 480,335 530,305 C 580,285 688,282 738,286"); }
        50% { d: path("M 370,435 C 420,375 480,335 530,305 C 580,285 700,275 778,283"); }
        62.5% { d: path("M 370,435 C 420,375 480,335 530,305 C 580,285 710,253 828,243"); }
        75% { d: path("M 370,435 C 420,375 480,335 530,305 C 580,285 720,233 860,225"); }
        87.5% { d: path("M 370,435 C 420,375 480,335 530,305 C 580,285 730,237 898,243"); }
        100% { d: path("M 370,435 C 420,375 480,335 530,305 C 580,285 748,245 925,237"); }
      }
      @keyframes tent2 {
        0% { d: path("M 360,460 C 440,480 540,510 660,540 C 760,565 870,580 968,650"); }
        25% { d: path("M 360,460 C 440,480 540,510 660,540 C 760,563 870,578 971,648"); }
        50% { d: path("M 360,460 C 440,480 540,510 660,540 C 760,567 870,584 964,655"); }
        75% { d: path("M 360,460 C 440,480 540,510 660,540 C 760,564 870,579 969,649"); }
        100% { d: path("M 360,460 C 440,480 540,510 660,540 C 760,565 870,580 968,650"); }
      }
      @keyframes tent2h {
        0% { d: path("M 360,455 C 440,475 540,505 660,535 C 760,560 870,575 968,645"); }
        25% { d: path("M 360,455 C 440,475 540,505 660,535 C 760,558 870,573 971,643"); }
        50% { d: path("M 360,455 C 440,475 540,505 660,535 C 760,562 870,579 964,650"); }
        75% { d: path("M 360,455 C 440,475 540,505 660,535 C 760,559 870,574 969,644"); }
        100% { d: path("M 360,455 C 440,475 540,505 660,535 C 760,560 870,575 968,645"); }
      }
      @keyframes w4 { 0%, 100% { d: path("M 200,470 C 140,480 80,500 50,540 C 20,580 10,620 30,660"); } 50% { d: path("M 200,470 C 130,485 70,505 38,545 C 5,588 -2,628 18,668"); } }
      @keyframes w4h { 0%, 100% { d: path("M 200,465 C 140,475 80,495 50,535 C 20,575 10,615 30,655"); } 50% { d: path("M 200,465 C 130,480 70,500 38,540 C 5,583 -2,623 18,663"); } }
      @keyframes w5 { 0%, 100% { d: path("M 270,480 C 250,540 230,590 240,640 C 250,680 270,710 250,740"); } 50% { d: path("M 270,480 C 235,545 215,595 222,645 C 230,688 252,718 232,748"); } }
      @keyframes w5h { 0%, 100% { d: path("M 270,475 C 250,535 230,585 240,635 C 250,675 270,705 250,735"); } 50% { d: path("M 270,475 C 235,540 215,590 222,640 C 230,683 252,713 232,743"); } }
      @keyframes w6 { 0%, 100% { d: path("M 220,460 C 180,430 120,380 80,320 C 50,270 40,310 35,360 C 30,410 45,450 60,480"); } 47% { d: path("M 220,460 C 175,425 110,370 70,310 C 38,260 28,300 23,350 C 18,402 34,442 48,472"); } }
      @keyframes w6h { 0%, 100% { d: path("M 220,455 C 180,425 120,375 80,315 C 50,265 40,305 35,355 C 30,405 45,445 60,475"); } 47% { d: path("M 220,455 C 175,420 110,365 70,305 C 38,255 28,295 23,345 C 18,397 34,437 48,467"); } }
      .doodle1 { stroke-dasharray: 450; animation: drawDoodle 5s ease-in-out infinite; }
      .doodle2 { stroke-dasharray: 600; animation: drawDoodle2 5s ease-in-out infinite; }
      .doodle-line { fill: none; stroke-linecap: round; stroke-linejoin: round; }
      .cursor { animation: cursorMove 6s ease-in-out infinite; }
      .mouse-grp { animation: mouseMove 6s ease-in-out infinite; }
      .eye-blink { animation: blink 4s ease-in-out infinite; transform-origin: center; }
      .t1 { animation: tent1 5s ease-in-out infinite; } .t1h { animation: tent1h 5s ease-in-out infinite; }
      .t2 { animation: tent2 6s ease-in-out infinite; } .t2h { animation: tent2h 6s ease-in-out infinite; }
      .w4 { animation: w4 8s ease-in-out infinite; } .w4h { animation: w4h 8s ease-in-out infinite; }
      .w5 { animation: w5 9s ease-in-out infinite; } .w5h { animation: w5h 9s ease-in-out infinite; }
      .w6 { animation: w6 7s ease-in-out infinite; } .w6h { animation: w6h 7s ease-in-out infinite; }
    </style>
  </defs>

  <rect width="1200" height="800" fill="url(#bgGrad)"/>
  <g opacity="0.03">
    <pattern id="grid" width="40" height="40" patternUnits="userSpaceOnUse">
      <path d="M 40 0 L 0 0 0 40" fill="none" stroke="#ffffff" stroke-width="0.5"/>
    </pattern>
    <rect width="1200" height="620" fill="url(#grid)"/>
  </g>
  <ellipse cx="850" cy="380" rx="350" ry="280" fill="rgba(60,120,255,0.04)"/>
  <path d="M 0,620 L 1200,620 L 1200,800 L 0,800 Z" fill="url(#deskGrad)"/>
  <line x1="0" y1="620" x2="1200" y2="620" stroke="rgba(255,255,255,0.06)" stroke-width="2"/>

  <!-- KEYBOARD -->
  <g filter="url(#shadow)">
    <path d="M 580,660 L 940,650 L 960,690 L 560,700 Z" fill="url(#kbGrad)" stroke="rgba(255,255,255,0.05)" stroke-width="1"/>
    <g fill="#3a3a4a" opacity="0.8">
      <rect x="600" y="668" width="22" height="14" rx="2" transform="skewX(3)"/><rect x="626" y="667" width="22" height="14" rx="2" transform="skewX(3)"/><rect x="652" y="666" width="22" height="14" rx="2" transform="skewX(3)"/><rect x="678" y="665" width="22" height="14" rx="2" transform="skewX(3)"/><rect x="704" y="664" width="22" height="14" rx="2" transform="skewX(3)"/><rect x="730" y="663" width="22" height="14" rx="2" transform="skewX(3)"/><rect x="756" y="662" width="22" height="14" rx="2" transform="skewX(3)"/><rect x="782" y="661" width="22" height="14" rx="2" transform="skewX(3)"/><rect x="808" y="660" width="22" height="14" rx="2" transform="skewX(3)"/><rect x="834" y="659" width="22" height="14" rx="2" transform="skewX(3)"/><rect x="860" y="658" width="22" height="14" rx="2" transform="skewX(3)"/>
    </g>
  </g>

  <!-- MOUSE -->
  <g class="mouse-grp" filter="url(#shadow)">
    <path d="M 950,650 Q 970,630 990,650 Q 1000,670 990,690 Q 970,700 950,690 Q 940,670 950,650 Z" fill="url(#mouseGrad)" stroke="rgba(255,255,255,0.05)" stroke-width="1"/>
    <line x1="970" y1="645" x2="970" y2="685" stroke="rgba(255,255,255,0.06)" stroke-width="1"/>
    <ellipse cx="970" cy="660" rx="3" ry="5" fill="#4a4a5a" stroke="rgba(255,255,255,0.1)" stroke-width="0.5"/>
    <path d="M 970,650 Q 960,640 1000,630" fill="none" stroke="#2a2a3a" stroke-width="2" stroke-linecap="round"/>
  </g>

  <!-- MONITOR -->
  <g filter="url(#shadow)">
    <ellipse cx="930" cy="620" rx="70" ry="12" fill="#15152a" stroke="rgba(255,255,255,0.05)" stroke-width="1"/>
    <path d="M 910,620 L 920,540 L 940,540 L 950,620 Z" fill="#1a1a30" stroke="rgba(255,255,255,0.04)" stroke-width="1"/>
  </g>
  <g filter="url(#shadow)">
    <path d="M 680,185 Q 860,176 1030,200 L 1060,205 L 1060,590 L 1030,595 Q 860,615 680,595 Z" fill="#0d0d1a" stroke="rgba(255,255,255,0.06)" stroke-width="1.5"/>
    <path d="M 1030,200 L 1060,205 L 1060,590 L 1030,595 Z" fill="#080812" stroke="rgba(255,255,255,0.03)" stroke-width="0.5"/>
    <path d="M 680,185 Q 860,176 1030,200 L 1060,205 L 1030,200 Z" fill="#121224"/>
    <path d="M 690,195 Q 870,188 1020,210 L 1020,575 Q 870,595 690,580 Z" fill="url(#screenGrad)" stroke="rgba(255,255,255,0.08)" stroke-width="1"/>
  </g>

  <!-- MONITOR SCREEN -->
  <g clip-path="url(#screenClip)">
    <rect x="680" y="190" width="350" height="400" fill="rgba(20,40,80,0.3)"/><rect x="680" y="190" width="350" height="400" fill="rgba(30,60,110,0.15)"/>
    <g transform="translate(710, 220)">
      <rect x="0" y="0" width="140" height="180" rx="4" fill="rgba(30,30,50,0.85)" stroke="rgba(255,255,255,0.1)" stroke-width="0.5"/>
      <rect x="0" y="0" width="140" height="20" rx="4" fill="rgba(40,40,65,0.9)"/><rect x="0" y="10" width="140" height="10" fill="rgba(40,40,65,0.9)"/>
      <circle cx="12" cy="10" r="4" fill="#ff5f56"/><circle cx="24" cy="10" r="4" fill="#ffbd2e"/><circle cx="36" cy="10" r="4" fill="#27c93f"/>
      <g opacity="0.6">
        <rect x="10" y="30" width="60" height="3" rx="1.5" fill="#ff79c6"/><rect x="10" y="38" width="80" height="3" rx="1.5" fill="#6272a4"/>
        <rect x="10" y="46" width="40" height="3" rx="1.5" fill="#8be9fd"/><rect x="15" y="54" width="70" height="3" rx="1.5" fill="#f8f8f2"/>
        <rect x="15" y="62" width="55" height="3" rx="1.5" fill="#ffb86c"/><rect x="10" y="70" width="90" height="3" rx="1.5" fill="#6272a4"/>
        <rect x="15" y="78" width="65" height="3" rx="1.5" fill="#50fa7b"/><rect x="15" y="86" width="45" height="3" rx="1.5" fill="#f8f8f2"/>
        <rect x="10" y="94" width="80" height="3" rx="1.5" fill="#ff79c6"/><rect x="10" y="102" width="50" height="3" rx="1.5" fill="#6272a4"/>
        <rect x="15" y="110" width="70" height="3" rx="1.5" fill="#8be9fd"/><rect x="10" y="118" width="85" height="3" rx="1.5" fill="#f8f8f2"/>
        <rect x="20" y="126" width="60" height="3" rx="1.5" fill="#ffb86c"/><rect x="10" y="134" width="40" height="3" rx="1.5" fill="#6272a4"/>
        <rect x="10" y="142" width="75" height="3" rx="1.5" fill="#50fa7b"/>
      </g>
      <rect x="10" y="150" width="2" height="14" fill="#50fa7b" opacity="0.7"><animate attributeName="opacity" values="0.7;0.1;0.7" dur="1s" repeatCount="indefinite"/></rect>
    </g>
    <g transform="translate(870, 240)">
      <rect x="0" y="0" width="120" height="140" rx="4" fill="rgba(35,35,55,0.85)" stroke="rgba(255,255,255,0.1)" stroke-width="0.5"/>
      <rect x="0" y="0" width="120" height="18" rx="4" fill="rgba(45,45,70,0.9)"/><rect x="0" y="9" width="120" height="9" fill="rgba(45,45,70,0.9)"/>
      <rect x="10" y="28" width="20" height="20" rx="3" fill="rgba(100,180,255,0.3)"/><rect x="36" y="28" width="20" height="20" rx="3" fill="rgba(100,255,180,0.2)"/><rect x="62" y="28" width="20" height="20" rx="3" fill="rgba(255,180,100,0.2)"/><rect x="88" y="28" width="20" height="20" rx="3" fill="rgba(255,100,180,0.2)"/>
      <rect x="10" y="56" width="100" height="12" rx="2" fill="rgba(255,255,255,0.05)"/>
      <rect x="10" y="56" width="25" height="12" rx="2" fill="#ff6b6b"/><rect x="35" y="56" width="25" height="12" rx="2" fill="#4ecdc4"/><rect x="60" y="56" width="25" height="12" rx="2" fill="#45b7d1"/><rect x="85" y="56" width="25" height="12" rx="2" fill="#96ceb4"/>
      <rect x="10" y="76" width="100" height="4" rx="2" fill="rgba(255,255,255,0.1)"/><circle cx="45" cy="78" r="4" fill="rgba(100,180,255,0.6)"/>
      <rect x="10" y="88" width="100" height="4" rx="2" fill="rgba(255,255,255,0.1)"/><circle cx="70" cy="90" r="4" fill="rgba(100,180,255,0.6)"/>
      <rect x="10" y="100" width="100" height="4" rx="2" fill="rgba(255,255,255,0.1)"/><circle cx="30" cy="102" r="4" fill="rgba(100,180,255,0.6)"/>
    </g>
    <g transform="translate(720, 420)">
      <rect x="0" y="0" width="160" height="90" rx="4" fill="rgba(20,20,40,0.9)" stroke="rgba(255,255,255,0.08)" stroke-width="0.5"/>
      <rect x="0" y="0" width="160" height="18" rx="4" fill="rgba(35,35,55,0.9)"/><rect x="0" y="9" width="160" height="9" fill="rgba(35,35,55,0.9)"/>
      <text x="10" y="13" font-family="monospace" font-size="8" fill="#6272a4">terminal</text>
      <g opacity="0.7">
        <rect x="10" y="26" width="140" height="2" rx="1" fill="#6272a4"/>
        <text x="10" y="38" font-family="monospace" font-size="8" fill="#50fa7b">$ npm run dev</text>
        <text x="10" y="50" font-family="monospace" font-size="8" fill="#f8f8f2">  building...</text>
        <text x="10" y="62" font-family="monospace" font-size="8" fill="#50fa7b">  ✓ ready</text>
        <text x="10" y="74" font-family="monospace" font-size="8" fill="#f8f8f2">$</text>
        <rect x="22" y="72" width="2" height="10" fill="#50fa7b" opacity="0.7"><animate attributeName="opacity" values="0.7;0.1;0.7" dur="1.2s" repeatCount="indefinite"/></rect>
      </g>
    </g>
    <g transform="translate(780, 520)">
      <rect x="0" y="0" width="120" height="16" rx="8" fill="rgba(255,255,255,0.06)"/>
      <circle cx="20" cy="8" r="3" fill="#50fa7b"/><circle cx="40" cy="8" r="3" fill="#ffb86c"/><circle cx="60" cy="8" r="3" fill="#ff79c6"/>
      <rect x="80" y="5" width="30" height="6" rx="3" fill="rgba(255,255,255,0.08)"/>
    </g>
    <path d="M 690,195 Q 870,188 1020,210 L 1020,575 Q 870,595 690,580 Z" fill="url(#screenReflect)"/>
    <g opacity="0.015"><pattern id="scanlines" width="1" height="3" patternUnits="userSpaceOnUse"><rect width="1" height="1" fill="#ffffff"/></pattern><rect x="680" y="190" width="350" height="400" fill="url(#scanlines)"/></g>
    <g class="cursor" filter="url(#glow)">
      <path d="M 0,0 L 0,20 L 4,16 L 8,24 L 10,23 L 6,15 L 12,14 Z" fill="#ffffff" opacity="0.9"/>
      <path d="M 1,1 L 1,18 L 5,14 L 9,22 L 9.5,21.5 L 5.5,13.5 L 11,12.5 Z" fill="#000000" opacity="0.3"/>
    </g>
    <path d="M 690,195 Q 870,188 1020,210 L 1020,575 Q 870,595 690,580 Z" fill="none" stroke="rgba(100,180,255,0.08)" stroke-width="2"/>
  </g>

  <!-- GLASS -->
  <g filter="url(#glassShadow)">
    <path d="M 610,188 Q 780,182 930,205 L 930,570 Q 780,588 610,575 Z" fill="url(#glassGrad)" stroke="url(#glassEdge)" stroke-width="1.5"/>
    <path d="M 610,188 Q 780,182 930,205" fill="none" stroke="rgba(200,230,255,0.25)" stroke-width="1.5"/>
    <path d="M 630,220 L 640,560" stroke="rgba(200,230,255,0.06)" stroke-width="20"/><path d="M 700,200 L 710,570" stroke="rgba(200,230,255,0.04)" stroke-width="15"/><path d="M 850,195 L 855,575" stroke="rgba(200,230,255,0.03)" stroke-width="10"/>
    <path d="M 610,188 L 605,190 L 605,577 L 610,575 Z" fill="rgba(180,220,255,0.2)"/>
    <g clip-path="url(#glassClip)">
      <use href="#doodleTrack1" class="doodle-line doodle1" stroke="#ff6b6b" stroke-width="3" opacity="0.9"/>
      <path class="doodle-line doodle2" d="M 660,480 Q 690,440 730,460 Q 770,480 790,440 Q 810,400 850,420 Q 880,440 900,410" stroke="#4ecdc4" stroke-width="3" opacity="0.9"/>
      <g opacity="0.7">
        <path d="M 770,350 L 775,360 L 785,362 L 775,368 L 778,378 L 770,372 L 762,378 L 765,368 L 755,362 L 765,360 Z" fill="#ffd93d"><animate attributeName="opacity" values="0;0;0.8;0.8;0" dur="5s" repeatCount="indefinite"/></path>
        <path d="M 890,280 L 893,286 L 900,288 L 895,293 L 897,300 L 890,296 L 883,300 L 885,293 L 880,288 L 887,286 Z" fill="#ffd93d"><animate attributeName="opacity" values="0;0;0;0.8;0.8;0" dur="5s" repeatCount="indefinite"/></path>
      </g>
      <circle cx="720" cy="270" r="3" fill="#ff9ff3"><animate attributeName="opacity" values="0;0.8;0" dur="4s" repeatCount="indefinite"/></circle>
      <circle cx="900" cy="350" r="2" fill="#ff9ff3"><animate attributeName="opacity" values="0.8;0;0.8" dur="3s" repeatCount="indefinite"/></circle>
      <circle cx="680" cy="450" r="2.5" fill="#feca57"><animate attributeName="opacity" values="0;0.8;0" dur="3.5s" repeatCount="indefinite"/></circle>
    </g>
  </g>

  <!-- ==================== OCTOCAT ==================== -->
  <!-- My tentacles (behind the Octocat head) -->

  <!-- Free tentacle 6: curves left and up -->
  <g filter="url(#shadow)" opacity="0.85">
    <path class="w6" d="M 220,460 C 180,430 120,380 80,320 C 50,270 40,310 35,360 C 30,410 45,450 60,480" fill="none" stroke="#1a1c2e" stroke-width="30" stroke-linecap="round"/>
    <path class="w6h" d="M 220,455 C 180,425 120,375 80,315 C 50,265 40,305 35,355 C 30,405 45,445 60,475" fill="none" stroke="rgba(255,255,255,0.08)" stroke-width="11" stroke-linecap="round"/>
    <g fill="rgba(255,255,255,0.10)"><ellipse cx="140" cy="388" rx="4" ry="2.5"/><ellipse cx="75" cy="318" rx="4" ry="2.5"/><ellipse cx="42" cy="376" rx="4" ry="2.5"/></g></g>
  <!-- Free tentacle 4: curves left and down -->
  <g filter="url(#shadow)" opacity="0.85">
    <path class="w4" d="M 200,470 C 140,480 80,500 50,540 C 20,580 10,620 30,660" fill="none" stroke="#1a1c2e" stroke-width="30" stroke-linecap="round"/>
    <path class="w4h" d="M 200,465 C 140,475 80,495 50,535 C 20,575 10,615 30,655" fill="none" stroke="rgba(255,255,255,0.08)" stroke-width="11" stroke-linecap="round"/>
    <g fill="rgba(255,255,255,0.10)"><ellipse cx="120" cy="490" rx="4" ry="2.5"/><ellipse cx="60" cy="530" rx="4" ry="2.5"/><ellipse cx="22" cy="590" rx="4" ry="2.5"/></g></g>
  <!-- Free tentacle 5: curves down -->
  <g filter="url(#shadow)" opacity="0.85">
    <path class="w5" d="M 270,480 C 250,540 230,590 240,640 C 250,680 270,710 250,740" fill="none" stroke="#1a1c2e" stroke-width="30" stroke-linecap="round"/>
    <path class="w5h" d="M 270,475 C 250,535 230,585 240,635 C 250,675 270,705 250,735" fill="none" stroke="rgba(255,255,255,0.08)" stroke-width="11" stroke-linecap="round"/>
    <g fill="rgba(255,255,255,0.10)"><ellipse cx="250" cy="550" rx="4" ry="2.5"/><ellipse cx="238" cy="620" rx="4" ry="2.5"/><ellipse cx="258" cy="700" rx="4" ry="2.5"/></g></g>

  <!-- Octodex HEAD (original from octodex.svg, tentacles masked out) -->
  <g clip-path="url(#headClip)">
    <g transform="translate(15, -40) scale(0.72)">
      <!-- Main body silhouette (original Octocat shape) -->
      <path d="M0 0 C13.62547691 -0.49429664 25.96593473 -0.15352592 39 4 C39.80808105 4.25249512 40.61616211 4.50499023 41.44873047 4.76513672 C66.2115151 12.68491389 92.96493104 25.01649618 113.07055664 41.72021484 C115.11941167 43.37684065 115.11941167 43.37684065 118.59765625 42.59375 C120.08983234 42.24545043 121.57792375 41.87938825 123.0625 41.5 C124.78181426 41.10226575 126.50191668 40.70792816 128.22265625 40.31640625 C129.61701904 39.99373779 129.61701904 39.99373779 131.03955078 39.66455078 C149.8465765 35.44281863 168.81079179 32.70762249 188 31 C188.80630859 30.92797363 189.61261719 30.85594727 190.44335938 30.78173828 C228.9152625 27.55864773 269.08898208 30.10556804 306.69946289 38.86865234 C313.11026695 40.29296302 318.1446628 40.33630486 323.890625 36.76953125 C325.34890023 35.79148988 326.80169541 34.80524639 328.25 33.8125 C350.87293818 18.97763824 375.54346493 7.03454473 402 1 C402.7736792 0.82275391 403.5473584 0.64550781 404.34448242 0.46289062 C407.12792512 -0.02229898 409.69570388 -0.11343182 412.51953125 -0.09765625 C413.54111328 -0.09443359 414.56269531 -0.09121094 415.61523438 -0.08789062 C416.67033203 -0.07951172 417.72542969 -0.07113281 418.8125 -0.0625 C419.88693359 -0.05798828 420.96136719 -0.05347656 422.06835938 -0.04882812 C424.71229683 -0.03707729 427.35611952 -0.02064787 430 0 C439.42893131 26.05651541 445.02241772 51.88487953 442.1875 79.6875 C442.10927002 80.55181641 442.03104004 81.41613281 441.95043945 82.30664062 C441.54276515 86.40382418 441.02178515 90.26449547 439.8125 94.20703125 C438.6882421 97.99749799 437.89466165 101.04294211 438 105 C440.55485514 109.18164181 443.80463285 112.14454512 447.39501953 115.43261719 C469.34098811 136.86448793 480.95180908 171.31559917 485 201 C485.09643799 201.68094727 485.19287598 202.36189453 485.29223633 203.06347656 C486.37080828 211.9571331 486.19872344 220.93095734 486.1875 229.875 C486.18659363 231.20340912 486.18659363 231.20340912 486.18566895 232.55865479 C486.13697191 258.93997939 484.95806274 285.68353684 478.43139648 311.3671875 C478.02859718 312.95829346 478.02859718 312.95829346 477.61766052 314.58154297 C477.31191856 315.7786792 477.31191856 315.7786792 477 317 C477.88694046 316.99555878 478.77388092 316.99111755 479.68769836 316.98654175 C488.2268629 316.94573486 496.76599273 316.915657 505.30523396 316.89637566 C509.69075637 316.8861285 514.07619548 316.87234016 518.46166992 316.84912109 C548.40144043 316.69506676 578.20273511 317.53875104 608 320.6875 C608.76667999 320.7659314 609.53335999 320.84436279 610.32327271 320.9251709 C630.68133736 323.03102667 650.84427858 326.49311441 671 330 C671 331.65 671 333.3 671 335 C663.93980139 334.01668543 656.89117756 332.99729237 649.85546875 331.8515625 C627.6548465 328.26931807 605.41613553 325.77766185 583 324 C582.22406494 323.93834656 581.44812988 323.87669312 580.64868164 323.81317139 C545.51791292 321.08159488 510.20801144 321.79508614 475 322 C474.79503906 322.75925781 474.59007812 323.51851563 474.37890625 324.30078125 C474.10949219 325.29464844 473.84007812 326.28851563 473.5625 327.3125 C473.29566406 328.29863281 473.02882813 329.28476562 472.75390625 330.30078125 C472.21920575 332.21517526 471.62855462 334.11433615 471 336 C471.61417282 336.03900925 472.22834564 336.07801849 472.86112976 336.11820984 C539.19221368 340.35272474 605.97328078 346.00780464 670 365 C669.67 366.32 669.34 367.64 669 369 C661.84293683 368.35934217 655.00126129 366.62086031 648.04156494 364.90567017 C594.35062983 351.75481699 539.26701086 344.94238512 484.08276367 342.5949707 C483.29768936 342.56072998 482.51261505 342.52648926 481.70375061 342.49121094 C480.24504767 342.42876648 478.78617379 342.37014421 477.32713318 342.31616211 C474.099405 342.18023131 471.09595169 341.95892745 468 341 C467.74347656 341.85335938 467.48695313 342.70671875 467.22265625 343.5859375 C456.37083678 373.88782317 427.88738262 396.71279822 399.75 410.1875 C368.64454006 424.52578506 333.96706183 431.68425957 300 435 C300 435.66 300 436.32 300 437 C301.45779971 438.35921899 302.9684399 439.66196877 304.5 440.9375 C322.4214305 456.78328459 328.93518443 478.93236968 331 502 C331.47942027 511.20699612 331.35239486 520.42868299 331.29296875 529.64453125 C331.28735802 532.23768363 331.28309493 534.83083924 331.28010559 537.42399597 C331.26992361 543.49014035 331.24641863 549.55609111 331.21605712 555.62216347 C331.18218644 562.54389751 331.16594619 569.4656408 331.15097082 576.38743746 C331.11985595 590.591714 331.06730278 604.79585099 331 619 C331.82522817 619.06576925 332.65045633 619.13153851 333.50069141 619.19930077 C334.58253554 619.2871213 335.66437967 619.37494183 336.77900696 619.46542358 C337.85173512 619.55181784 338.92446329 619.63821209 340.02969837 619.72722435 C343.21414712 620.01966606 346.28988793 620.50108425 349.41796875 621.1640625 C350.51431641 621.39536865 351.61066406 621.6266748 352.74023438 621.86499023 C354.44663086 622.24119507 354.44663086 622.24119507 356.1875 622.625 C357.39857422 622.88933838 358.60964844 623.15367676 359.85742188 623.42602539 C397.40636564 631.7982267 448.15613544 644.08181055 471.82421875 677.58203125 C478.08241717 687.68909746 480.00390145 698.30124596 477.3125 709.984375 C471.40112493 725.84656477 457.1700079 736.82353274 443 745 C442.41766602 745.3412793 441.83533203 745.68255859 441.23535156 746.03417969 C433.56738693 750.48338737 425.65480401 754.11687022 417.4375 757.4375 C416.5923584 757.77982666 415.7472168 758.12215332 414.87646484 758.47485352 C410.55360418 760.17142296 406.59726923 761.25194513 402 762 C401.67 762.66 401.34 763.32 401 764 C398.98828125 764.7109375 398.98828125 764.7109375 396.3125 765.375 C390.56088802 766.84861562 384.86450671 768.47286374 379.1640625 770.1328125 C376.44122958 770.87907041 373.76826546 771.45916666 371 772 C369.51324191 772.3456431 368.02770452 772.69655188 366.54296875 773.05078125 C355.28115643 775.71436342 344.02994101 777.95531831 332.59448242 779.7434082 C331.63002197 779.89511475 330.66556152 780.04682129 329.671875 780.203125 C328.8169043 780.33364258 327.96193359 780.46416016 327.08105469 780.59863281 C324.95000831 780.91260546 324.95000831 780.91260546 323 782 C321.33333333 782 319.66666667 782 318 782 C317.34 782.33 316.68 782.66 316 783 C314.33333333 783 312.66666667 783 311 783 C310.34 783.33 309.68 783.66 309 784 C306.18405146 784.20794697 303.38214889 784.37426834 300.5625 784.5 C294.69735037 784.70132605 294.69735037 784.70132605 289 786 C287.58401389 786.04390655 286.16611277 786.03961155 284.75 786 C280.73380649 785.94809443 276.97797183 786.42138592 273 787 C271.64599861 787.02115627 270.29151126 787.02051532 268.9375 787 C265.16996372 786.88708705 265.16996372 786.88708705 262.18363953 787.49191284 C258.77700583 788.03558835 255.57334971 788.12708011 252.12426758 788.12939453 C251.4649675 788.13114685 250.80566742 788.13289917 250.12638855 788.13470459 C247.96574201 788.1390755 245.8051785 788.13620303 243.64453125 788.1328125 C242.1357166 788.13348667 240.62690205 788.13445763 239.11808777 788.13571167 C235.96518921 788.13718198 232.81231907 788.13505465 229.65942383 788.13037109 C225.61753244 788.12465947 221.57570724 788.12796606 217.53381824 788.13394356 C214.42233276 788.13755464 211.31086302 788.13640831 208.19937706 788.13381577 C206.70862508 788.13314878 205.21787167 788.13396697 203.72712135 788.13629532 C201.64722519 788.13883241 199.56743694 788.13496699 197.48754883 788.12939453 C196.3042952 788.12859894 195.12104156 788.12780334 193.90193176 788.12698364 C191 788 191 788 188 787 C185.81295424 786.95542327 183.62465053 786.9609001 181.4375 787 C175.22174381 787.11087191 175.22174381 787.11087191 173 786 C171.41878432 785.85994483 169.83252278 785.77444016 168.24609375 785.71875 C167.30958984 785.68136719 166.37308594 785.64398437 165.40820312 785.60546875 C163.42383304 785.53501774 161.43945801 785.46470578 159.45507812 785.39453125 C158.51986328 785.35714844 157.58464844 785.31976562 156.62109375 785.28125 C155.32836548 785.23581055 155.32836548 785.23581055 154.00952148 785.18945312 C152 785 152 785 151 784 C149.865625 784 148.73125 784 147.5625 784 C144 784 144 784 142 783 C139.6670134 782.95977609 137.33293334 782.95679753 135 783 C135 782.34 135 781.68 135 781 C134.030625 781.185625 133.06125 781.37125 132.0625 781.5625 C131.051875 781.706875 130.04125 781.85125 129 782 C128.67 781.67 128.34 781.34 128 781 C125.85955114 780.58063664 123.70851603 780.21520073 121.5546875 779.87109375 C120.16774518 779.64311595 118.78095139 779.4142332 117.39428711 779.18457031 C116.65773895 779.06327759 115.9211908 778.94198486 115.162323 778.8170166 C98.50984494 776.05400854 82.34143637 772.26383035 66.06591797 767.80273438 C63.44776038 767.11723492 60.84499039 766.5402706 58.19140625 766.015625 C54.30564156 765.18583835 50.91576362 763.76148869 47.32568359 762.07910156 C43.22480476 760.17632134 39.0115019 758.54697199 34.8125 756.875 C33.94947266 756.52824219 33.08644531 756.18148437 32.19726562 755.82421875 C27.83493947 754.08195842 23.4799683 752.42244493 19 751 C19 750.34 19 749.68 19 749 C18.11957031 748.73574219 17.23914063 748.47148438 16.33203125 748.19921875 C2.49554546 743.21938154 -12.89281728 730.25201247 -21 718 C-21.34820041 716.33637583 -21.68404492 714.67004829 -22 713 C-22.66 712.67 -23.32 712.34 -24 712 C-24 710.35 -24 708.7 -24 707 C-24.66 706.67 -25.32 706.34 -26 706 C-25.74554953 689.06747781 -21.05083316 678.74315231 -9 667 C-8.32839844 666.33097656 -7.65679687 665.66195312 -6.96484375 664.97265625 C20.37146485 639.3775138 64.75525429 629.47061864 100 622 C100.92167969 621.79987305 101.84335937 621.59974609 102.79296875 621.39355469 C103.66566406 621.20954102 104.53835938 621.02552734 105.4375 620.8359375 C106.19933594 620.67399902 106.96117187 620.51206055 107.74609375 620.34521484 C110 620 110 620 115 620 C114.67 595.25 114.34 570.5 114 545 C107.73 545.99 101.46 546.98 95 548 C90.63248803 548.42895207 86.37009569 548.81076717 82 549 C80.71029297 549.061875 80.71029297 549.061875 79.39453125 549.125 C53.30825806 549.75643778 27.61878318 542.57842973 8 525 C-3.27434902 514.20746077 -9.73953399 502.0069451 -15.64257812 487.81567383 C-20.58682775 476.02414906 -26.64040565 465.74431244 -35 456 C-35.51691406 455.32710938 -36.03382813 454.65421875 -36.56640625 453.9609375 C-40.63810749 448.83814546 -45.45605488 445.34483836 -50.79077148 441.65600586 C-55.48922389 438.40701561 -59.85267598 434.93839082 -64 431 C-64.54398438 430.50242187 -65.08796875 430.00484375 -65.6484375 429.4921875 C-67.79201335 427.12558063 -67.93607739 425.13220789 -68 422 C-65.74183871 418.61275807 -63.04159448 417.24692444 -59.1015625 416.31640625 C-43.03329017 413.8972054 -27.88462116 420.18132833 -14.8515625 429.171875 C-12.10661675 431.34015148 -9.53744267 433.59310101 -7 436 C-5.92105469 437.01707031 -5.92105469 437.01707031 -4.8203125 438.0546875 C0.62235042 443.65684237 4.73326526 449.98559014 9 456.5 C19.40682493 472.35539553 30.80051053 484.27410172 49 491 C49.82757813 491.31839844 50.65515625 491.63679688 51.5078125 491.96484375 C71.41350145 498.26154128 93.73950037 493.8208682 112.4609375 485.953125 C115 485 115 485 118 485 C118.12955078 484.14341797 118.12955078 484.14341797 118.26171875 483.26953125 C121.88184251 462.37909229 133.43367136 448.46115659 148 434 C146.96746094 434.04382813 145.93492187 434.08765625 144.87109375 434.1328125 C138.51362813 434.12444925 132.31324996 432.93833134 126.0625 431.875 C125.40549103 431.76395935 124.74848206 431.6529187 124.07156372 431.53851318 C78.62099982 423.80747585 36.78660984 408.8893548 2 378 C1.34644531 377.41992188 0.69289062 376.83984375 0.01953125 376.2421875 C-10.06318171 366.71031159 -18.80773517 354.38452965 -25 342 C-87.48662156 344.49743443 -151.29863985 350.1305683 -211.67480469 367.32421875 C-215.5601704 368.43023696 -218.90903805 369.32166838 -223 369 C-223.33 367.68 -223.66 366.36 -224 365 C-162.20318147 346.53582141 -92.62699411 336.01207143 -28 337 C-29.98 332.38 -31.96 327.76 -34 323 C-41.37726569 322.24920473 -48.63036544 321.84146413 -56.04296875 321.83203125 C-57.07272827 321.82779648 -58.10248779 321.82356171 -59.16345215 321.81919861 C-62.50484316 321.80932737 -65.84609695 321.80928267 -69.1875 321.8125 C-70.91681259 321.81340637 -70.91681259 321.81340637 -72.68106079 321.81433105 C-119.23441305 321.88024162 -165.26181299 325.43171097 -211.1940918 333.07408142 C-215.78655923 333.8325976 -220.37948081 334.4459493 -225 335 C-225 333.35 -225 331.7 -225 330 C-204.04752729 326.35448799 -183.10258851 322.84565899 -161.9375 320.6875 C-160.87038284 320.57541199 -160.87038284 320.57541199 -159.78170776 320.46105957 C-154.19435576 319.88247923 -148.60146185 319.41886316 -143 319 C-141.25595886 318.86930115 -141.25595886 318.86930115 -139.47668457 318.73596191 C-117.24268782 317.12712116 -95.11163386 316.73792496 -72.82537842 316.8626709 C-68.6466285 316.88369632 -64.46785083 316.89238145 -60.2890625 316.90234375 C-52.19263735 316.92334508 -44.09633896 316.95714475 -36 317 C-36.25496246 316.1746727 -36.25496246 316.1746727 -36.51507568 315.33267212 C-42.72987067 295.13815285 -42.72987067 295.13815285 -44.25 286.375 C-44.40637939 285.51366455 -44.56275879 284.6523291 -44.72387695 283.76489258 C-46.22663485 275.21682897 -47.24916636 266.64379322 -48 258 C-48.11214844 256.78183594 -48.22429687 255.56367188 -48.33984375 254.30859375 C-52.00183494 207.00369383 -45.06805466 159.52023356 -14 122 C-13.16855469 121.23171875 -12.33710938 120.4634375 -11.48046875 119.671875 C-8.88123932 117.13730302 -7.31491942 115.39987727 -6 112 C-6.27701869 107.40080862 -7.86733353 103.15170151 -9.4296875 98.85546875 C-13.22324171 87.98534478 -13.40771047 76.52179187 -13.375 65.125 C-13.37445618 64.40689148 -13.37391235 63.68878296 -13.37335205 62.94891357 C-13.29946824 41.59294513 -10.16834137 19.09958484 0 0 Z M218 490 C217.1283771 518.79369155 216.90853978 547.57043706 216.9375 576.375 C216.93835602 577.23245945 216.93921204 578.0899189 216.94009399 578.97336197 C216.9515385 589.64892916 216.97169263 600.32446443 217 611 C220.96 611 224.92 611 229 611 C229.03060398 599.45834445 229.05097771 587.9166903 229.0625 576.375 C229.06335602 575.52358303 229.06421204 574.67216606 229.06509399 573.79494858 C229.0899194 545.85085049 228.84557858 517.9333286 228 490 C224.7 490 221.4 490 218 490 Z M170 495 C161.26208627 504.38317506 158.83522923 515.8828573 158.88647461 528.28833008 C158.88632858 529.21564941 158.88618256 530.14296875 158.8860321 531.09838867 C158.88672731 534.15546021 158.89450136 537.21247039 158.90234375 540.26953125 C158.90420932 542.39230821 158.90563257 544.51508561 158.90663147 546.63786316 C158.91044567 552.21915887 158.92026661 557.80042846 158.93133545 563.38171387 C158.94157314 569.07934211 158.94613414 574.77697458 158.95117188 580.47460938 C158.96188985 591.64975104 158.97895313 602.82487335 159 614 C164.94 613.505 164.94 613.505 171 613 C171 574.06 171 535.12 171 495 C170.67 495 170.34 495 170 495 Z M275 497 C275 534.95 275 572.9 275 612 C278.12889199 612.782223 280.1400091 613.11433318 283.25 613.0625 C285.10625 613.0315625 285.10625 613.0315625 287 613 C287.0930355 601.09889281 287.16393452 589.19787339 287.20724869 577.29647541 C287.22804642 571.76905199 287.25622022 566.24187897 287.30175781 560.71459961 C287.34549558 555.3718186 287.36919574 550.02927714 287.37950897 544.6863308 C287.38685049 542.65675274 287.40118558 540.62718651 287.42292023 538.59771156 C287.56542828 524.72851098 287.2317315 511.83311403 279 500 C277.68 499.01 276.36 498.02 275 497 Z" fill="#14162e"/>

      <!-- Face area (cream/flesh tone from octodex) -->
      <path d="M0 0 C0.72880371 0.00265869 1.45760742 0.00531738 2.20849609 0.00805664 C14.85705952 0.06034559 27.42894306 0.81404351 40.04498291 1.66442871 C61.58013194 3.10743887 83.04759801 3.75 104.625 3.75 C105.34247406 3.75 106.05994812 3.75 106.79916382 3.75 C126.90793126 3.73642923 146.88493356 3.06270008 166.93505859 1.45605469 C237.91598179 -4.20368908 237.91598179 -4.20368908 264.234375 17.47265625 C266.77681946 19.71848219 269.23896912 22.02748112 271.6875 24.375 C272.36554688 24.98988281 273.04359375 25.60476563 273.7421875 26.23828125 C290.59634256 42.04328208 301.0591969 64.37003899 301.92578125 87.37109375 C302.58301407 119.37508989 296.24369809 150.78984675 274.6875 175.375 C257.33090388 193.41492667 231.99562683 203.21772776 207.6875 207.375 C206.66317871 207.5598999 206.66317871 207.5598999 205.61816406 207.74853516 C173.48399976 213.52186419 140.67568082 213.59067676 108.125 213.5625 C106.81977386 213.56189575 105.51454773 213.5612915 104.16976929 213.56066895 C83.61285144 213.54076238 63.16664721 213.25180891 42.6875 211.375 C41.65317841 211.28025391 41.65317841 211.28025391 40.59796143 211.18359375 C21.60588249 209.41593155 3.07810455 206.59585318 -15.3125 201.375 C-16.05081055 201.16762207 -16.78912109 200.96024414 -17.54980469 200.74658203 C-32.51770239 196.43568392 -46.8206027 189.69216097 -59.3125 180.375 C-60.30765625 179.63765625 -61.3028125 178.9003125 -62.328125 178.140625 C-74.80653432 168.34987307 -83.07262276 156.49203182 -89.53271484 142.10546875 C-90.17846343 140.67244872 -90.86008154 139.25565352 -91.55078125 137.84375 C-96.78302285 126.36918155 -98.87865421 111.90646871 -99.3125 99.375 C-99.34891602 98.71773926 -99.38533203 98.06047852 -99.42285156 97.38330078 C-100.80477499 70.94675721 -91.17250733 48.99907694 -73.9375 29.25 C-53.78354178 7.55101943 -29.37260381 -0.32152215 0 0 Z" fill="#f0d9b5" transform="translate(344.3125,255.625)"/>

      <!-- Eye whites (from octodex) -->
      <path d="M0 0 C13.48668396 7.22742162 21.34734784 19.09815683 26.02880859 33.3515625 C32.23807227 54.08410777 30.001352 75.95279793 20.33984375 95.25390625 C15.01439923 104.33579335 7.07356927 113.59843119 -3.33203125 116.85546875 C-12.86038936 118.48616091 -21.82200639 118.14265667 -29.9296875 112.7421875 C-44.39942216 102.06385927 -51.24829086 86.29096283 -54.24609375 68.84375 C-56.41679674 50.02416465 -53.89584805 29.81945423 -42.22265625 14.31640625 C-41.0564052 12.94389683 -39.86957717 11.58853154 -38.66015625 10.25390625 C-37.84417969 9.30064453 -37.84417969 9.30064453 -37.01171875 8.328125 C-27.30732774 -2.31025669 -13.2329852 -5.9997895 0 0 Z" fill="#ffffff" transform="translate(573.66015625,293.74609375)"/>
      <path d="M0 0 C12.40217689 7.66744269 20.68991625 20.97113908 24.0390625 35.046875 C28.35098541 55.68403838 27.0608019 77.45532151 16.296875 95.921875 C9.63642177 105.82254872 2.43458782 112.18847073 -9 116 C-20.21062354 116.95911365 -29.21633578 114.99234517 -38.05859375 107.8828125 C-47.6020051 98.62743167 -52.66549573 86.63957363 -56 74 C-56.17273438 73.40026367 -56.34546875 72.80052734 -56.5234375 72.18261719 C-60.4495301 54.2014349 -56.79162357 31.59032736 -47.1796875 16.05859375 C-35.45125591 -0.8441459 -19.62511648 -9.0695708 0 0 Z" fill="#ffffff" transform="translate(353,295)"/>

      <!-- Inner ears (pink from octodex) -->
      <path d="M0 0 C7.83143468 5.14676879 12.02743346 12.85452562 15.19921875 21.4453125 C15.44542969 22.11175781 15.69164062 22.77820313 15.9453125 23.46484375 C20.0546611 36.92650295 16.64012142 52.32989304 10.19921875 64.4453125 C6.08898499 70.35102311 1.2984854 75.4819622 -5.80078125 77.4453125 C-12.65965836 78.48619641 -18.11955726 77.43400518 -23.80078125 73.4453125 C-29.7107158 68.80355141 -32.95187744 63.32233671 -35.80078125 56.4453125 C-36.28224609 55.34123047 -36.28224609 55.34123047 -36.7734375 54.21484375 C-41.26214742 42.08488811 -39.96934733 27.0826119 -34.80078125 15.4453125 C-30.98105629 8.06578469 -25.53504684 2.23731528 -18.36328125 -1.9921875 C-11.79156395 -3.43475959 -6.06259849 -3.02600902 0 0 Z" fill="#d4837a" transform="translate(348.80078125,314.5546875)"/>
      <path d="M0 0 C9.13243538 3.11452998 13.62836113 9.10586103 17.83984375 17.50390625 C19.02870815 20.46224324 20.00785847 23.42735637 20.83984375 26.50390625 C21.02417969 27.08398438 21.20851563 27.6640625 21.3984375 28.26171875 C24.10720245 42.02128584 21.56439165 56.8590923 13.83984375 68.50390625 C9.54482402 74.88507842 3.83842656 78.47319072 -3.6796875 80.0234375 C-10.7007756 80.49888126 -15.78644147 77.86423883 -21.16015625 73.50390625 C-30.83896444 63.59662834 -33.58111154 50.57768969 -33.52368164 37.20751953 C-33.28356575 25.52614805 -30.24526707 15.21820857 -22.16015625 6.50390625 C-15.07933432 0.8160329 -9.1320999 -2.09724537 0 0 Z" fill="#d4837a" transform="translate(567.16015625,312.49609375)"/>
    </g>
  </g>

  <!-- Active tentacle 1: pen (emerges from under neck, reaches to glass) -->
  <g filter="url(#shadow)">
    <path class="t1" d="M 370,440 C 420,380 480,340 530,310 C 580,290 630,288 668,296" fill="none" stroke="#14162e" stroke-width="32" stroke-linecap="round"/>
    <path class="t1h" d="M 370,435 C 420,375 480,335 530,305 C 580,285 630,283 668,291" fill="none" stroke="rgba(255,255,255,0.10)" stroke-width="12" stroke-linecap="round"/>
    <g fill="rgba(255,255,255,0.14)"><ellipse cx="445" cy="338" rx="5" ry="3" transform="rotate(-20,445,338)"/><ellipse cx="490" cy="320" rx="5" ry="3" transform="rotate(-10,490,320)"/><ellipse cx="535" cy="308" rx="5" ry="3"/><ellipse cx="580" cy="298" rx="5" ry="3" transform="rotate(5,580,298)"/><ellipse cx="625" cy="290" rx="5" ry="3" transform="rotate(8,625,290)"/></g></g>

  <!-- PEN + TENTACLE WRAP: held/wrapped by tentacle tip -->
  <g>
    <animateMotion dur="5s" repeatCount="indefinite" rotate="auto"><mpath href="#doodleTrack1"/></animateMotion>
    <!-- Tentacle tip wraps AROUND the pen -->
    <path d="M -55,-40 C -45,-65 -22,-62 -10,-46 C -4,-36 -14,-30 -26,-36" fill="none" stroke="#14162e" stroke-width="18" stroke-linecap="round"/>
    <g filter="url(#shadow)" transform="rotate(-10)">
      <path d="M -48,-65 L -18,-55 L -23,-45 L -53,-55 Z" fill="url(#penGrad)" stroke="rgba(255,255,255,0.1)" stroke-width="0.5"/>
      <path d="M -18,-55 L -6,-50 L -10,-47 L -23,-45 Z" fill="#888" stroke="rgba(0,0,0,0.3)" stroke-width="0.5"/>
      <path d="M -6,-50 L 0,-48 L -4,-47 Z" fill="#ff6b6b"/>
      <rect x="-50" y="-67" width="3" height="14" rx="1.5" fill="#999"/>
      <path d="M -50,-63 L -37,-59" stroke="rgba(255,255,255,0.3)" stroke-width="1.5"/>
    </g>
  </g>

  <!-- Active tentacle 2: mouse -->
  <g filter="url(#shadow)">
    <path class="t2" d="M 360,460 C 440,480 540,510 660,540 C 760,565 870,580 968,650" fill="none" stroke="#14162e" stroke-width="32" stroke-linecap="round"/>
    <path class="t2h" d="M 360,455 C 440,475 540,505 660,535 C 760,560 870,575 968,645" fill="none" stroke="rgba(255,255,255,0.08)" stroke-width="12" stroke-linecap="round"/>
    <g fill="rgba(255,255,255,0.12)"><ellipse cx="470" cy="490" rx="5" ry="3" transform="rotate(10,470,490)"/><ellipse cx="550" cy="518" rx="6" ry="3.5" transform="rotate(10,550,518)"/><ellipse cx="635" cy="540" rx="6" ry="3.5" transform="rotate(5,635,540)"/><ellipse cx="720" cy="558" rx="5" ry="3" transform="rotate(5,720,558)"/><ellipse cx="805" cy="572" rx="5" ry="3"/><ellipse cx="885" cy="580" rx="5" ry="3"/></g></g>

  <!-- Active tentacle 3: keyboard (static) -->
  <g filter="url(#shadow)">
    <path d="M 310,470 C 380,520 470,550 570,580 C 670,610 770,635 860,660" fill="none" stroke="#14162e" stroke-width="32" stroke-linecap="round"/>
    <path d="M 310,465 C 380,515 470,545 570,575 C 670,605 770,630 860,655" fill="none" stroke="rgba(255,255,255,0.08)" stroke-width="12" stroke-linecap="round"/>
    <g fill="rgba(255,255,255,0.12)"><ellipse cx="410" cy="538" rx="5" ry="3" transform="rotate(15,410,538)"/><ellipse cx="495" cy="562" rx="6" ry="3.5" transform="rotate(10,495,562)"/><ellipse cx="580" cy="586" rx="6" ry="3.5" transform="rotate(5,580,586)"/><ellipse cx="665" cy="610" rx="5" ry="3"/><ellipse cx="750" cy="632" rx="5" ry="3"/><ellipse cx="820" cy="648" rx="5" ry="3"/></g></g>

  <!-- ATMOSPHERE -->
  <g opacity="0.04"><polygon points="690,300 500,250 500,400" fill="rgba(100,180,255,0.5)"/><polygon points="690,400 480,350 480,500" fill="rgba(100,180,255,0.3)"/></g>
  <g opacity="0.15">
    <circle cx="500" cy="200" r="1.5" fill="#4ecdc4"><animate attributeName="opacity" values="0;0.5;0" dur="4s" repeatCount="indefinite"/><animate attributeName="cy" values="200;180;200" dur="4s" repeatCount="indefinite"/></circle>
    <circle cx="550" cy="350" r="1" fill="#ff6b6b"><animate attributeName="opacity" values="0.5;0;0.5" dur="3s" repeatCount="indefinite"/><animate attributeName="cy" values="350;330;350" dur="3s" repeatCount="indefinite"/></circle>
    <circle cx="450" cy="450" r="1.2" fill="#ffd93d"><animate attributeName="opacity" values="0;0.4;0" dur="5s" repeatCount="indefinite"/><animate attributeName="cy" values="450;430;450" dur="5s" repeatCount="indefinite"/></circle>
  </g>
  <rect width="1200" height="800" fill="#000" opacity="0" pointer-events="none" filter="url(#vignette)"/>
</svg>
