<svg xmlns="http://www.w3.org/2000/svg" viewBox="0 0 1200 800" width="100%" height="100%">
  <defs>
    <style>
      @keyframes drawStroke {
        0%   { stroke-dashoffset: 180; }
        70%  { stroke-dashoffset: 0; }
        100% { stroke-dashoffset: 0; }
      }
      .anim-stroke { stroke-dasharray: 180; stroke-dashoffset: 180; animation: drawStroke 4s ease-out infinite; }
      @keyframes penMove {
        0%   { transform: translate(0px, 0px); }
        40%  { transform: translate(-2px, -3px); }
        70%  { transform: translate(-4px, -6px); }
        100% { transform: translate(-4px, -6px); }
      }
      .anim-pen { animation: penMove 4s ease-out infinite; }
      @keyframes mouseSway {
        0%, 100% { transform: translate(0px, 0px) rotate(0deg); }
        25% { transform: translate(2px, 1px) rotate(1deg); }
        50% { transform: translate(-1px, 2px) rotate(-0.5deg); }
        75% { transform: translate(3px, -1px) rotate(0.5deg); }
      }
      .anim-mouse-hold { animation: mouseSway 3s ease-in-out infinite; }
      @keyframes octoBob {
        0%, 100% { transform: translateY(0); }
        50% { transform: translateY(-3px); }
      }
      .anim-bob { animation: octoBob 3s ease-in-out infinite; }
    </style>

    <linearGradient id="wall" x1="0" y1="0" x2="0" y2="1"><stop offset="0%" stop-color="#f0ebe3"/><stop offset="100%" stop-color="#ddd5ca"/></linearGradient>
    <linearGradient id="desk" x1="0" y1="0" x2="0" y2="1"><stop offset="0%" stop-color="#6b4230"/><stop offset="100%" stop-color="#4a2c1d"/></linearGradient>
    <linearGradient id="bezel" x1="0" y1="0" x2="0" y2="1"><stop offset="0%" stop-color="#2a2a2a"/><stop offset="50%" stop-color="#1a1a1a"/><stop offset="100%" stop-color="#0d0d0d"/></linearGradient>
    <linearGradient id="glass" x1="0" y1="0" x2="1" y2="1">
      <stop offset="0%" stop-color="#b8d8ff" stop-opacity="0.12"/>
      <stop offset="30%" stop-color="#fff" stop-opacity="0.04"/>
      <stop offset="50%" stop-color="#b8d8ff" stop-opacity="0.08"/>
      <stop offset="70%" stop-color="#fff" stop-opacity="0.02"/>
      <stop offset="100%" stop-color="#b8d8ff" stop-opacity="0.10"/>
    </linearGradient>
    <linearGradient id="key" x1="0" y1="0" x2="0" y2="1"><stop offset="0%" stop-color="#3a3a3a"/><stop offset="100%" stop-color="#1a1a1a"/></linearGradient>
    <radialGradient id="mouseBody" cx="0.5" cy="0.3" r="0.6"><stop offset="0%" stop-color="#e8e8e8"/><stop offset="100%" stop-color="#a0a0a0"/></radialGradient>
    <linearGradient id="penBody" x1="0" y1="0" x2="1" y2="0"><stop offset="0%" stop-color="#555"/><stop offset="30%" stop-color="#999"/><stop offset="50%" stop-color="#ccc"/><stop offset="70%" stop-color="#888"/><stop offset="100%" stop-color="#444"/></linearGradient>
    <filter id="octoShadow" x="-10%" y="-10%" width="130%" height="130%"><feDropShadow dx="0" dy="12" stdDeviation="16" flood-color="#000" flood-opacity="0.12"/></filter>
    <filter id="glassShadow" x="-10%" y="-10%" width="130%" height="130%"><feDropShadow dx="4" dy="8" stdDeviation="10" flood-color="#000" flood-opacity="0.2"/></filter>
    <clipPath id="screenClip"><rect x="555" y="195" width="230" height="140"/></clipPath>
  </defs>

  <rect x="0" y="0" width="1200" height="800" fill="url(#wall)"/>
  <rect x="0" y="470" width="1200" height="330" fill="url(#desk)"/>
  <line x1="0" y1="470" x2="1200" y2="470" stroke="#7a5040" stroke-width="3"/>

  <!-- MONITOR + GLASS: same size, parallel, horizontal -->
  <g transform="rotate(-4 640 280)">
    <!-- Monitor (landscape) -->
    <rect x="515" y="190" width="260" height="170" rx="8" fill="url(#bezel)" filter="url(#glassShadow)"/>
    <rect x="530" y="200" width="230" height="150" rx="4" fill="#0d1117"/>
    <!-- Stand -->
    <rect x="620" y="360" width="30" height="55" rx="3" fill="#333"/>
    <rect x="600" y="410" width="70" height="12" rx="4" fill="#222"/>

    <!-- Screen content -->
    <g clip-path="url(#screenClip)">
      <rect x="530" y="195" width="230" height="150" fill="#151f2e"/>
      <!-- Desktop icons -->
      <rect x="540" y="205" width="40" height="32" rx="3" fill="#fff" opacity="0.04"/>
      <rect x="586" y="205" width="40" height="32" rx="3" fill="#fff" opacity="0.04"/>
      <rect x="632" y="205" width="40" height="32" rx="3" fill="#fff" opacity="0.04"/>
      <!-- Code window -->
      <rect x="540" y="245" width="100" height="80" rx="3" fill="#1e1e2e" stroke="#383838" stroke-width="0.5"/>
      <rect x="540" y="245" width="100" height="20" rx="3" fill="#2d2d2d"/>
      <rect x="540" y="258" width="100" height="6" fill="#1e1e2e"/>
      <circle cx="546" cy="255" r="2.5" fill="#ff5f56"/><circle cx="554" cy="255" r="2.5" fill="#ffbd2e"/><circle cx="562" cy="255" r="2.5" fill="#27c93f"/>
      <rect x="545" y="270" width="30" height="2.5" rx="1" fill="#7c3aed" opacity="0.7"/>
      <rect x="545" y="278" width="50" height="2.5" rx="1" fill="#fff" opacity="0.2"/>
      <rect x="545" y="286" width="40" height="2.5" rx="1" fill="#10b981" opacity="0.6"/>
      <rect x="545" y="294" width="55" height="2.5" rx="1" fill="#fff" opacity="0.2"/>
      <rect x="545" y="302" width="35" height="2.5" rx="1" fill="#f59e0b" opacity="0.6"/>
      <rect x="545" y="310" width="45" height="2.5" rx="1" fill="#fff" opacity="0.18"/>
      <!-- Drawing window -->
      <rect x="650" y="265" width="90" height="65" rx="3" fill="#282828" stroke="#383838" stroke-width="0.5"/>
      <rect x="650" y="265" width="90" height="18" rx="3" fill="#2d2d2d"/>
      <circle cx="656" cy="274" r="2" fill="#ff5f56"/><circle cx="664" cy="274" r="2" fill="#ffbd2e"/><circle cx="672" cy="274" r="2" fill="#27c93f"/>
      <rect x="654" y="288" width="82" height="38" rx="2" fill="#fff" opacity="0.9"/>
      <path d="M660 312 Q670 300 678 310 Q686 320 694 305" fill="none" stroke="#e64a19" stroke-width="1.5" stroke-linecap="round"/>
      <!-- Terminal -->
      <rect x="650" y="245" width="80" height="18" rx="3" fill="#1a1a2e" stroke="#383838" stroke-width="0.5"/>
      <text x="654" y="258" fill="#00ff41" font-size="8" font-family="monospace" opacity="0.7">$ cargo build</text>
      <!-- Dock -->
      <rect x="555" y="330" width="180" height="14" rx="4" fill="rgba(255,255,255,0.04)"/>
      <circle cx="570" cy="337" r="3.5" fill="#fff" opacity="0.08"/>
      <circle cx="585" cy="337" r="3.5" fill="#fff" opacity="0.08"/>
      <circle cx="600" cy="337" r="3.5" fill="#fff" opacity="0.08"/>
      <circle cx="615" cy="337" r="3.5" fill="#fff" opacity="0.08"/>
      <circle cx="630" cy="337" r="3.5" fill="#fff" opacity="0.08"/>
      <circle cx="645" cy="337" r="3.5" fill="#fff" opacity="0.08"/>
      <circle cx="660" cy="337" r="3.5" fill="#fff" opacity="0.08"/>
      <circle cx="675" cy="337" r="3.5" fill="#fff" opacity="0.08"/>
      <circle cx="690" cy="337" r="3.5" fill="#fff" opacity="0.08"/>
      <circle cx="705" cy="337" r="3.5" fill="#fff" opacity="0.08"/>
      <circle cx="720" cy="337" r="3.5" fill="#fff" opacity="0.08"/>
    </g>
    <!-- Screen glare -->
    <rect x="530" y="200" width="100" height="150" fill="#fff" opacity="0.006"/>

    <!-- GLASS: same size as monitor screen, directly in front -->
    <g filter="url(#glassShadow)">
      <rect x="485" y="200" width="230" height="150" rx="6"
            fill="url(#glass)" stroke="rgba(184,216,255,0.25)" stroke-width="1.5"/>
      <rect x="487" y="202" width="226" height="146" rx="4" fill="none" stroke="#fff" stroke-width="0.5" opacity="0.08"/>
      <rect x="490" y="206" width="70" height="8" rx="3" fill="#fff" opacity="0.04" transform="rotate(-3 525 210)"/>

      <!-- Strokes on glass -->
      <g opacity="0.75">
        <path d="M560 310 Q575 295 590 312" fill="none" stroke="#1565c0" stroke-width="3" stroke-linecap="round"/>
        <path d="M555 328 Q568 316 585 330" fill="none" stroke="#1565c0" stroke-width="2.5" stroke-linecap="round"/>
        <path d="M610 318 Q625 305 640 322" fill="none" stroke="#2e7d32" stroke-width="2.5" stroke-linecap="round"/>
        <path d="M620 298 Q630 285 642 300" fill="none" stroke="#2e7d32" stroke-width="2.5" stroke-linecap="round"/>
        <circle cx="652" cy="330" r="2" fill="#2e7d32" opacity="0.3"/>
      </g>
      <!-- Animated stroke -->
      <path d="M580 278 Q595 295 610 282 Q625 269 640 290"
            fill="none" stroke="#e64a19" stroke-width="3.5" stroke-linecap="round" class="anim-stroke"/>
      <rect x="485" y="200" width="230" height="150" rx="6" fill="none" stroke="#fff" stroke-width="0.6" opacity="0.04"/>
    </g>
  </g>

  <!-- KEYBOARD -->
  <g transform="translate(420, 505) rotate(-18)" filter="url(#octoShadow)">
    <rect x="0" y="0" width="180" height="65" rx="5" fill="#1e1e1e" stroke="#333" stroke-width="1"/>
    <g fill="url(#key)" stroke="#111" stroke-width="0.5">
      <rect x="5" y="7" width="10" height="9" rx="1.5"/><rect x="18" y="7" width="10" height="9" rx="1.5"/>
      <rect x="31" y="7" width="10" height="9" rx="1.5"/><rect x="44" y="7" width="10" height="9" rx="1.5"/>
      <rect x="57" y="7" width="10" height="9" rx="1.5"/><rect x="70" y="7" width="10" height="9" rx="1.5"/>
      <rect x="83" y="7" width="10" height="9" rx="1.5"/><rect x="96" y="7" width="10" height="9" rx="1.5"/>
      <rect x="109" y="7" width="10" height="9" rx="1.5"/><rect x="122" y="7" width="10" height="9" rx="1.5"/>
      <rect x="135" y="7" width="10" height="9" rx="1.5"/><rect x="148" y="7" width="10" height="9" rx="1.5"/>
    </g>
    <g fill="url(#key)" stroke="#111" stroke-width="0.5">
      <rect x="8" y="20" width="13" height="9" rx="1.5"/><rect x="24" y="20" width="10" height="9" rx="1.5"/>
      <rect x="37" y="20" width="10" height="9" rx="1.5"/><rect x="50" y="20" width="10" height="9" rx="1.5"/>
      <rect x="63" y="20" width="10" height="9" rx="1.5"/><rect x="76" y="20" width="10" height="9" rx="1.5"/>
      <rect x="89" y="20" width="10" height="9" rx="1.5"/><rect x="102" y="20" width="10" height="9" rx="1.5"/>
      <rect x="115" y="20" width="10" height="9" rx="1.5"/><rect x="128" y="20" width="10" height="9" rx="1.5"/>
      <rect x="141" y="20" width="10" height="9" rx="1.5"/>
    </g>
    <g fill="url(#key)" stroke="#111" stroke-width="0.5">
      <rect x="5" y="33" width="16" height="9" rx="1.5"/><rect x="24" y="33" width="10" height="9" rx="1.5"/>
      <rect x="37" y="33" width="10" height="9" rx="1.5"/><rect x="50" y="33" width="10" height="9" rx="1.5"/>
      <rect x="63" y="33" width="10" height="9" rx="1.5"/><rect x="76" y="33" width="10" height="9" rx="1.5"/>
      <rect x="89" y="33" width="10" height="9" rx="1.5"/><rect x="102" y="33" width="10" height="9" rx="1.5"/>
      <rect x="115" y="33" width="10" height="9" rx="1.5"/><rect x="128" y="33" width="10" height="9" rx="1.5"/>
      <rect x="141" y="33" width="16" height="9" rx="1.5"/>
    </g>
    <g fill="url(#key)" stroke="#111" stroke-width="0.5">
      <rect x="5" y="46" width="20" height="9" rx="1.5"/><rect x="28" y="46" width="10" height="9" rx="1.5"/>
      <rect x="41" y="46" width="60" height="9" rx="1.5"/>
      <rect x="104" y="46" width="10" height="9" rx="1.5"/><rect x="117" y="46" width="10" height="9" rx="1.5"/>
      <rect x="130" y="46" width="20" height="9" rx="1.5"/>
    </g>
  </g>

  <!-- OCTOCAT -->
  <g filter="url(#octoShadow)">
    <g class="anim-bob">
      <g transform="translate(-20, 240) scale(0.30)">
        <!-- 29 reference paths (unchanged) -->
        <path d="M0 0 C13.62547691 -0.49429664 25.96593473 -0.15352592 39 4 C39.80808105 4.25249512 40.61616211 4.50499023 41.44873047 4.76513672 C66.2115151 12.68491389 92.96493104 25.01649618 113.07055664 41.72021484 C115.11941167 43.37684065 115.11941167 43.37684065 118.59765625 42.59375 C120.08983234 42.24545043 121.57792375 41.87938825 123.0625 41.5 C124.78181426 41.10226575 126.50191668 40.70792816 128.22265625 40.31640625 C129.61701904 39.99373779 129.61701904 39.99373779 131.03955078 39.66455078 C149.8465765 35.44281863 168.81079179 32.70762249 188 31 C188.80630859 30.92797363 189.61261719 30.85594727 190.44335938 30.78173828 C228.9152625 27.55864773 269.08898208 30.10556804 306.69946289 38.86865234 C313.11026695 40.29296302 318.1446628 40.33630486 323.890625 36.76953125 C325.34890023 35.79148988 326.80169541 34.80524639 328.25 33.8125 C350.87293818 18.97763824 375.54346493 7.03454473 402 1 C402.7736792 0.82275391 403.5473584 0.64550781 404.34448242 0.46289062 C407.12792512 -0.02229898 409.69570388 -0.11343182 412.51953125 -0.09765625 C413.54111328 -0.09443359 414.56269531 -0.09121094 415.61523438 -0.08789062 C416.67033203 -0.07951172 417.72542969 -0.07113281 418.8125 -0.0625 C419.88693359 -0.05798828 420.96136719 -0.05347656 422.06835938 -0.04882812 C424.71229683 -0.03707729 427.35611952 -0.02064787 430 0 C439.42893131 26.05651541 445.02241772 51.88487953 442.1875 79.6875 C442.10927002 80.55181641 442.03104004 81.41613281 441.95043945 82.30664062 C441.54276515 86.40382418 441.02178515 90.26449547 439.8125 94.20703125 C438.6882421 97.99749799 437.89466165 101.04294211 438 105 C440.55485514 109.18164181 443.80463285 112.14454512 447.39501953 115.43261719 C469.34098811 136.86448793 480.95180908 171.31559917 485 201 C485.09643799 201.68094727 485.19287598 202.36189453 485.29223633 203.06347656 C486.37080828 211.9571331 486.19872344 220.93095734 486.1875 229.875 C486.18659363 231.20340912 486.18659363 231.20340912 486.18566895 232.55865479 C486.13697191 258.93997939 484.95806274 285.68353684 478.43139648 311.3671875 C478.02859718 312.95829346 478.02859718 312.95829346 477.61766052 314.58154297 C477.31191856 315.7786792 477.31191856 315.7786792 477 317 C477.88694046 316.99555878 478.77388092 316.99111755 479.68769836 316.98654175 C488.2268629 316.94573486 496.76599273 316.915657 505.30523396 316.89637566 C509.69075637 316.8861285 514.07619548 316.87234016 518.46166992 316.84912109 C548.40144043 316.69506676 578.20273511 317.53875104 608 320.6875 C608.76667999 320.7659314 609.53335999 320.84436279 610.32327271 320.9251709 C630.68133736 323.03102667 650.84427858 326.49311441 671 330 C671 331.65 671 333.3 671 335 C663.93980139 334.01668543 656.89117756 332.99729237 649.85546875 331.8515625 C627.6548465 328.26931807 605.41613553 325.77766185 583 324 C582.22406494 323.93834656 581.44812988 323.87669312 580.64868164 323.81317139 C545.51791292 321.08159488 510.20801144 321.79508614 475 322 C474.79503906 322.75925781 474.59007812 323.51851563 474.37890625 324.30078125 C474.10949219 325.29464844 473.84007812 326.28851563 473.5625 327.3125 C473.29566406 328.29863281 473.02882813 329.28476562 472.75390625 330.30078125 C472.21920575 332.21517526 471.62855462 334.11433615 471 336 C471.61417282 336.03900925 472.22834564 336.07801849 472.86112976 336.11820984 C539.19221368 340.35272474 605.97328078 346.00780464 670 365 C669.67 366.32 669.34 367.64 669 369 C661.84293683 368.35934217 655.00126129 366.62086031 648.04156494 364.90567017 C594.35062983 351.75481699 539.26701086 344.94238512 484.08276367 342.5949707 C483.29768936 342.56072998 482.51261505 342.52648926 481.70375061 342.49121094 C480.24504767 342.42876648 478.78617379 342.37014421 477.32713318 342.31616211 C474.099405 342.18023131 471.09595169 341.95892745 468 341 C467.74347656 341.85335938 467.48695313 342.70671875 467.22265625 343.5859375 C456.37083678 373.88782317 427.88738262 396.71279822 399.75 410.1875 C368.64454006 424.52578506 333.96706183 431.68425957 300 435 C300 435.66 300 436.32 300 437 C301.45779971 438.35921899 302.9684399 439.66196877 304.5 440.9375 C322.4214305 456.78328459 328.93518443 478.93236968 331 502 C331.47942027 511.20699612 331.35239486 520.42868299 331.29296875 529.64453125 C331.28735802 532.23768363 331.28309493 534.83083924 331.28010559 537.42399597 C331.26992361 543.49014035 331.24641863 549.55609111 331.21605712 555.62216347 C331.18218644 562.54389751 331.16594619 569.4656408 331.15097082 576.38743746 C331.11985595 590.591714 331.06730278 604.79585099 331 619 C331.82522817 619.06576925 332.65045633 619.13153851 333.50069141 619.19930077 C334.58253554 619.2871213 335.66437967 619.37494183 336.77900696 619.46542358 C337.85173512 619.55181784 338.92446329 619.63821209 340.02969837 619.72722435 C343.21414712 620.01966606 346.28988793 620.50108425 349.41796875 621.1640625 C350.51431641 621.39536865 351.61066406 621.6266748 352.74023438 621.86499023 C354.44663086 622.24119507 354.44663086 622.24119507 356.1875 622.625 C357.39857422 622.88933838 358.60964844 623.15367676 359.85742188 623.42602539 C397.40636564 631.7982267 448.15613544 644.08181055 471.82421875 677.58203125 C478.08241717 687.68909746 480.00390145 698.30124596 477.3125 709.984375 C471.40112493 725.84656477 457.1700079 736.82353274 443 745 C442.41766602 745.3412793 441.83533203 745.68255859 441.23535156 746.03417969 C433.56738693 750.48338737 425.65480401 754.11687022 417.4375 757.4375 C416.5923584 757.77982666 415.7472168 758.12215332 414.87646484 758.47485352 C410.55360418 760.17142296 406.59726923 761.25194513 402 762 C401.67 762.66 401.34 763.32 401 764 C398.98828125 764.7109375 398.98828125 764.7109375 396.3125 765.375 C390.56088802 766.84861562 384.86450671 768.47286374 379.1640625 770.1328125 C376.44122958 770.87907041 373.76826546 771.45916666 371 772 C369.51324191 772.3456431 368.02770452 772.69655188 366.54296875 773.05078125 C355.28115643 775.71436342 344.02994101 777.95531831 332.59448242 779.7434082 C331.63002197 779.89511475 330.66556152 780.04682129 329.671875 780.203125 C328.8169043 780.33364258 327.96193359 780.46416016 327.08105469 780.59863281 C324.95000831 780.91260546 324.95000831 780.91260546 323 782 C321.33333333 782 319.66666667 782 318 782 C317.34 782.33 316.68 782.66 316 783 C314.33333333 783 312.66666667 783 311 783 C310.34 783.33 309.68 783.66 309 784 C306.18405146 784.20794697 303.38214889 784.37426834 300.5625 784.5 C294.69735037 784.70132605 294.69735037 784.70132605 289 786 C287.58401389 786.04390655 286.16611277 786.03961155 284.75 786 C280.73380649 785.94809443 276.97797183 786.42138592 273 787 C271.64599861 787.02115627 270.29151126 787.02051532 268.9375 787 C265.16996372 786.88708705 265.16996372 786.88708705 262.18363953 787.49191284 C258.77700583 788.03558835 255.57334971 788.12708011 252.12426758 788.12939453 C251.4649675 788.13114685 250.80566742 788.13289917 250.12638855 788.13470459 C247.96574201 788.1390755 245.8051785 788.13620303 243.64453125 788.1328125 C242.1357166 788.13348667 240.62690205 788.13445763 239.11808777 788.13571167 C235.96518921 788.13718198 232.81231907 788.13505465 229.65942383 788.13037109 C225.61753244 788.12465947 221.57570724 788.12796606 217.53381824 788.13394356 C214.42233276 788.13755464 211.31086302 788.13640831 208.19937706 788.13381577 C206.70862508 788.13314878 205.21787167 788.13396697 203.72712135 788.13629532 C201.64722519 788.13883241 199.56743694 788.13496699 197.48754883 788.12939453 C196.3042952 788.12859894 195.12104156 788.12780334 193.90193176 788.12698364 C191 788 191 788 188 787 C185.81295424 786.95542327 183.62465053 786.9609001 181.4375 787 C175.22174381 787.11087191 175.22174381 787.11087191 173 786 C171.41878432 785.85994483 169.83252278 785.77444016 168.24609375 785.71875 C167.30958984 785.68136719 166.37308594 785.64398437 165.40820312 785.60546875 C163.42383304 785.53501774 161.43945801 785.46470578 159.45507812 785.39453125 C158.51986328 785.35714844 157.58464844 785.31976562 156.62109375 785.28125 C155.32836548 785.23581055 155.32836548 785.23581055 154.00952148 785.18945312 C152 785 152 785 151 784 C149.865625 784 148.73125 784 147.5625 784 C144 784 144 784 142 783 C139.6670134 782.95977609 137.33293334 782.95679753 135 783 C135 782.34 135 781.68 135 781 C134.030625 781.185625 133.06125 781.37125 132.0625 781.5625 C131.051875 781.706875 130.04125 781.85125 129 782 C128.67 781.67 128.34 781.34 128 781 C125.85955114 780.58063664 123.70851603 780.21520073 121.5546875 779.87109375 C120.16774518 779.64311595 118.78095139 779.4142332 117.39428711 779.18457031 C116.65773895 779.06327759 115.9211908 778.94198486 115.162323 778.8170166 C98.50984494 776.05400854 82.34143637 772.26383035 66.06591797 767.80273438 C63.44776038 767.11723492 60.84499039 766.5402706 58.19140625 766.015625 C54.30564156 755.18583835 50.91576362 753.76148869 47.32568359 752.07910156 C43.22480476 750.17632134 39.0115019 748.54697199 34.8125 746.875 C33.94947266 746.52824219 33.08644531 746.18148437 32.19726562 745.82421875 C27.83493947 744.08195842 23.4799683 742.42244493 19 741 C19 740.34 19 739.68 19 739 C18.11957031 738.73574219 17.23914063 738.47148438 16.33203125 738.19921875 C2.49554546 733.21938154 -12.89281728 720.25201247 -21 708 C-21.34820041 706.33637583 -21.68404492 704.67004829 -22 703 C-22.66 702.67 -23.32 702.34 -24 702 C-24 700.35 -24 698.7 -24 697 C-24.66 696.67 -25.32 696.34 -26 696 C-25.74554953 679.06747781 -21.05083316 668.74315231 -9 657 C-8.32839844 656.33097656 -7.65679687 655.66195312 -6.96484375 654.97265625 C20.37146485 629.3775138 64.75525429 619.47061864 100 612 C100.92167969 611.79987305 101.84335937 611.59974609 102.79296875 611.39355469 C103.66566406 611.20954102 104.53835938 611.02552734 105.4375 610.8359375 C106.19933594 610.67399902 106.96117187 610.51206055 107.74609375 610.34521484 C110 610 110 610 115 610 C114.67 585.25 114.34 560.5 114 535 C107.73 535.99 101.46 536.98 95 538 C90.63248803 538.42895207 86.37009569 538.81076717 82 539 C80.71029297 539.061875 80.71029297 539.061875 79.39453125 539.125 C53.30825806 539.75643778 27.61878318 532.57842973 8 515 C-3.27434902 504.20746077 -9.73953399 492.0069451 -15.64257812 477.81567383 C-20.58682775 466.02414906 -26.64040565 455.74431244 -35 446 C-35.51691406 445.32710938 -36.03382813 444.65421875 -36.56640625 443.9609375 C-40.63810749 438.83814546 -45.45605488 435.34483836 -50.79077148 431.65600586 C-55.48922389 428.40701561 -59.85267598 424.93839082 -64 421 C-64.54398438 420.50242187 -65.08796875 420.00484375 -65.6484375 419.4921875 C-67.79201335 417.12558063 -67.93607739 415.13220789 -68 412 C-65.74183871 408.61275807 -63.04159448 407.24692444 -59.1015625 406.31640625 C-43.03329017 403.8972054 -27.88462116 410.18132833 -14.8515625 419.171875 C-12.10661675 421.34015148 -9.53744267 423.59310101 -7 426 C-5.92105469 427.01707031 -5.92105469 427.01707031 -4.8203125 428.0546875 C0.62235042 433.65684237 4.73326526 439.98559014 9 446.5 C19.40682493 462.35539553 30.80051053 474.27410172 49 481 C49.82757813 481.31839844 50.65515625 481.63679688 51.5078125 481.96484375 C71.41350145 488.26154128 93.73950037 483.8208682 112.4609375 475.953125 C115 475 115 475 118 475 C118.12955078 474.14341797 118.12955078 474.14341797 118.26171875 473.26953125 C121.88184251 452.37909229 133.43367136 438.46115659 148 424 C146.96746094 424.04382813 145.93492187 424.08765625 144.87109375 424.1328125 C138.51362813 424.12444925 132.31324996 422.93833134 126.0625 421.875 C125.40549103 421.76395935 124.74848206 421.6529187 124.07156372 421.53851318 C78.62099982 413.80747585 36.78660984 398.8893548 2 368 C1.34644531 367.41992188 0.69289062 366.83984375 0.01953125 366.2421875 C-10.06318171 356.71031159 -18.80773517 344.38452965 -25 332 C-87.48662156 334.49743443 -151.29863985 340.1305683 -211.67480469 357.32421875 C-215.5601704 358.43023696 -218.90903805 359.32166838 -223 359 C-223.33 357.68 -223.66 356.36 -224 355 C-162.20318147 336.53582141 -92.62699411 326.01207143 -28 327 C-29.98 322.38 -31.96 317.76 -34 313 C-41.37726569 312.24920473 -48.63036544 311.84146413 -56.04296875 311.83203125 C-57.07272827 311.82779648 -58.10248779 311.82356171 -59.16345215 311.81919861 C-62.50484316 311.80932737 -65.84609695 311.80928267 -69.1875 311.8125 C-70.91681259 311.81340637 -70.91681259 311.81340637 -72.68106079 311.81433105 C-119.23441305 311.88024162 -165.26181299 315.43171097 -211.1940918 323.07408142 C-215.78655923 323.8325976 -220.37948081 324.4459493 -225 325 C-225 323.35 -225 321.7 -225 320 C-204.04752729 316.35448799 -183.10258851 312.84565899 -161.9375 310.6875 C-160.87038284 310.57541199 -160.87038284 310.57541199 -159.78170776 310.46105957 C-154.19435576 309.88247923 -148.60146185 309.41886316 -143 309 C-141.25595886 308.86930115 -141.25595886 308.86930115 -139.47668457 308.73596191 C-117.24268782 307.12712116 -95.11163386 306.73792496 -72.82537842 306.8626709 C-68.6466285 306.88369632 -64.46785083 306.89238145 -60.2890625 306.90234375 C-52.19263735 306.92334508 -44.09633896 306.95714475 -36 307 C-36.25496246 306.1746727 -36.25496246 306.1746727 -36.51507568 305.33267212 C-42.72987067 285.13815285 -42.72987067 285.13815285 -44.25 276.375 C-44.40637939 275.51366455 -44.56275879 274.6523291 -44.72387695 273.76489258 C-46.22663485 265.21682897 -47.24916636 256.64379322 -48 248 C-48.11214844 246.78183594 -48.22429687 245.56367188 -48.33984375 244.30859375 C-52.00183494 197.00369383 -45.06805466 149.52023356 -14 112 C-13.16855469 111.23171875 -12.33710938 110.4634375 -11.48046875 109.671875 C-8.88123932 107.13730302 -7.31491942 105.39987727 -6 102 C-6.27701869 97.40080862 -7.86733353 93.15170151 -9.4296875 88.85546875 C-13.22324171 77.98534478 -13.40771047 66.52179187 -13.375 55.125 C-13.37445618 54.40689148 -13.37391235 53.68878296 -13.37335205 52.94891357 C-13.29946824 31.59294513 -10.16834137 9.09958484 0 0 Z M218 490 C217.1283771 518.79369155 216.90853978 547.57043706 216.9375 576.375 C216.93835602 577.23245945 216.93921204 578.0899189 216.94009399 578.97336197 C216.9515385 589.64892916 216.97169263 600.32446443 217 611 C220.96 611 224.92 611 229 611 C229.03060398 599.45834445 229.05097771 587.9166903 229.0625 576.375 C229.06335602 575.52358303 229.06421204 574.67216606 229.06509399 573.79494858 C229.0899194 545.85085049 228.84557858 517.9333286 228 490 C224.7 490 221.4 490 218 490 Z M170 495 C161.26208627 504.38317506 158.83522923 515.8828573 158.88647461 528.28833008 C158.88632858 529.21564941 158.88618256 530.14296875 158.8860321 531.09838867 C158.88672731 534.15546021 158.89450136 537.21247039 158.90234375 540.26953125 C158.90420932 542.39230821 158.90563257 544.51508561 158.90663147 546.63786316 C158.91044567 552.21915887 158.92026661 557.80042846 158.93133545 563.38171387 C158.94157314 569.07934211 158.94613414 574.77697458 158.95117188 580.47460938 C158.96188985 591.64975104 158.97895313 602.82487335 159 614 C164.94 613.505 164.94 613.505 171 613 C171 574.06 171 535.12 171 495 C170.67 495 170.34 495 170 495 Z M275 497 C275 534.95 275 572.9 275 612 C278.12889199 612.782223 280.1400091 613.11433318 283.25 613.0625 C285.10625 613.0315625 285.10625 613.0315625 287 613 C287.0930355 601.09889281 287.16393452 589.19787339 287.20724869 577.29647541 C287.22804642 571.76905199 287.25622022 566.24187897 287.30175781 560.71459961 C287.34549558 555.3718186 287.36919574 550.02927714 287.37950897 544.6863308 C287.38685049 542.65675274 287.40118558 540.62718651 287.42292023 538.59771156 C287.56542828 524.72851098 287.2317315 511.83311403 279 500 C277.68 499.01 276.36 498.02 275 497 Z " fill="#000000" transform="translate(225,53)"/>
        <path d="M0 0 C0.72880371 0.00265869 1.45760742 0.00531738 2.20849609 0.00805664 C14.85705952 0.06034559 27.42894306 0.81404351 40.04498291 1.66442871 C61.58013194 3.10743887 83.04759801 3.75 104.625 3.75 C105.34247406 3.75 106.05994812 3.75 106.79916382 3.75 C126.90793126 3.73642923 146.88493356 3.06270008 166.93505859 1.45605469 C237.91598179 -4.20368908 237.91598179 -4.20368908 264.234375 17.47265625 C266.77681946 19.71848219 269.23896912 22.02748112 271.6875 24.375 C272.36554688 24.98988281 273.04359375 25.60476563 273.7421875 26.23828125 C290.59634256 42.04328208 301.0591969 64.37003899 301.92578125 87.37109375 C302.58301407 119.37508989 296.24369809 150.78984675 274.6875 175.375 C257.33090388 193.41492667 231.99562683 203.21772776 207.6875 207.375 C206.66317871 207.5598999 206.66317871 207.5598999 205.61816406 207.74853516 C173.48399976 213.52186419 140.67568082 213.59067676 108.125 213.5625 C106.81977386 213.56189575 105.51454773 213.5612915 104.16976929 213.56066895 C83.61285144 213.54076238 63.16664721 213.25180891 42.6875 211.375 C41.65317841 211.28025391 41.65317841 211.28025391 40.59796143 211.18359375 C21.60588249 209.41593155 3.07810455 206.59585318 -15.3125 201.375 C-16.05081055 201.16762207 -16.78912109 200.96024414 -17.54980469 200.74658203 C-32.51770239 196.43568392 -46.8206027 189.69216097 -59.3125 180.375 C-60.30765625 179.63765625 -61.3028125 178.9003125 -62.328125 178.140625 C-74.80653432 168.34987307 -83.07262276 156.49203182 -89.53271484 142.10546875 C-90.17846343 140.67244872 -90.86008154 139.25565352 -91.55078125 137.84375 C-96.78302285 126.36918155 -98.87865421 111.90646871 -99.3125 99.375 C-99.34891602 98.71773926 -99.38533203 98.06047852 -99.42285156 97.38330078 C-100.80477499 70.94675721 -91.17250733 48.99907694 -73.9375 29.25 C-53.78354178 7.55101943 -29.37260381 -0.32152215 0 0 Z " fill="#F3C9B0" transform="translate(344.3125,255.625)"/>
        <path d="M0 0 C4.62 0 9.24 0 14 0 C14.01417969 1.67964844 14.02835937 3.35929688 14.04296875 5.08984375 C14.41794726 26.61041888 17.11249326 45.45346278 32.5234375 61.71484375 C42.63783486 71.04752901 55.90960449 77.06147691 69.6875 77.25 C70.82574219 77.27578125 71.96398437 77.3015625 73.13671875 77.328125 C74.08160156 77.21984375 75.02648437 77.1115625 76 77 C78.46567337 73.30148994 78.31121934 71.6644103 77.73828125 67.3984375 C76.62348817 63.77683459 74.418215 61.63571649 71.8359375 58.9375 C57.54310008 43.85399498 57.62792985 20.38898905 58 1 C64.93 1.495 64.93 1.495 72 2 C72.03738281 3.02738281 72.07476563 4.05476562 72.11328125 5.11328125 C72.73381137 19.16276323 74.86871803 32.31710355 84.78515625 42.98828125 C95.69828715 52.90056064 111.26145046 58.66173821 126 59 C127.82917969 59.05800781 127.82917969 59.05800781 129.6953125 59.1171875 C138.07371942 59.40860354 138.07371942 59.40860354 146 57 C146.28860072 53.32034081 146.38975727 50.76095466 144.6875 47.4375 C141.30719602 44.3716429 137.63757221 42.50280287 133.61328125 40.38671875 C124.13299314 35.3560726 119.15427603 26.49395979 115.62890625 16.640625 C114.92481369 13.68431088 114.95799946 11.02925601 115 8 C123.58852016 8.50252496 131.79138608 9.77393041 140.1875 11.625 C142.00411133 12.02150757 142.00411133 12.02150757 143.85742188 12.42602539 C181.40636564 20.7982267 232.15613544 33.08181055 255.82421875 66.58203125 C262.08241717 76.68909746 264.00390145 87.30124596 261.3125 98.984375 C255.40112493 114.84656477 241.1700079 125.82353274 227 134 C226.41766602 134.3412793 225.83533203 134.68255859 225.23535156 135.03417969 C217.56738693 139.48338737 209.65480401 143.11687022 201.4375 146.4375 C200.5923584 146.77982666 199.7472168 147.12215332 198.87646484 147.47485352 C194.55360418 149.17142296 190.59726923 150.25194513 186 151 C185.67 151.66 185.34 152.32 185 153 C182.98828125 153.7109375 182.98828125 153.7109375 180.3125 154.375 C174.56088802 155.84861562 168.86450671 157.47286374 163.1640625 159.1328125 C160.44122958 159.87907041 157.76826546 160.45916666 155 161 C153.51324191 161.3456431 152.02770452 161.69655188 150.54296875 162.05078125 C139.28115643 164.71436342 128.02994101 166.95531831 116.59448242 168.7434082 C115.63002197 168.89511475 114.66556152 169.04682129 113.671875 169.203125 C112.38941895 169.39890137 112.38941895 169.39890137 111.08105469 169.59863281 C108.95000831 169.91260546 108.95000831 169.91260546 107 171 C105.33333333 171 103.66666667 171 102 171 C101.34 171.33 100.68 171.66 100 172 C98.33333333 172 96.66666667 172 95 172 C94.34 172.33 93.68 172.66 93 173 C90.18405146 173.20794697 87.38214889 173.37426834 84.5625 173.5 C78.69735037 173.70132605 78.69735037 173.70132605 73 175 C71.58401389 175.04390655 70.16611277 175.03961155 68.75 175 C64.73380649 174.94809443 60.97797183 175.42138592 57 176 C55.64599861 176.02115627 54.29151126 176.02051532 52.9375 176 C49.16996372 175.88708705 49.16996372 175.88708705 46.18363953 176.49191284 C42.77700583 177.03558835 39.57334971 177.12708011 36.12426758 177.12939453 C35.4649675 177.13114685 34.80566742 177.13289917 34.12638855 177.13470459 C31.96574201 177.1390755 29.8051785 177.13620303 27.64453125 177.1328125 C26.1357166 177.13348667 24.62690205 177.13445763 23.11808777 177.13571167 C19.96518921 177.13718198 16.81231907 177.13505465 13.65942383 177.13037109 C9.61753244 177.12465947 5.57570724 177.12796606 1.53381824 177.13394356 C-1.57766724 177.13755464 -4.68913698 177.13640831 -7.80062294 177.13381577 C-9.29137492 177.13314878 -10.78212833 177.13396697 -12.27287865 177.13629532 C-14.35277481 177.13883241 -16.43256306 177.13496699 -18.51245117 177.12939453 C-19.6957048 177.12859894 -20.87895844 177.12780334 -22.09806824 177.12698364 C-25 177 -25 177 -28 176 C-30.18704576 175.95542327 -32.37534947 175.9609001 -34.5625 176 C-40.77825619 176.11087191 -40.77825619 176.11087191 -43 175 C-44.58121568 174.85994483 -46.16747722 174.77444016 -47.75390625 174.71875 C-48.69041016 174.68136719 -49.62691406 174.64398437 -50.59179688 174.60546875 C-52.57616696 174.53501774 -54.56054199 174.46470578 -56.54492188 174.39453125 C-57.48013672 174.35714844 -58.41535156 174.31976562 -59.37890625 174.28125 C-60.2407251 174.25095703 -61.10254395 174.22066406 -61.99047852 174.18945312 C-64 174 -64 174 -65 173 C-66.134375 173 -67.26875 173 -68.4375 173 C-72 173 -72 173 -74 172 C-76.3329866 171.95977609 -78.66706666 171.95679753 -81 172 C-81 171.34 -81 170.68 -81 170 C-81.969375 170.185625 -82.93875 170.37125 -83.9375 170.5625 C-85.4534375 170.7790625 -85.4534375 170.7790625 -87 171 C-87.33 170.67 -87.66 170.34 -88 170 C-90.14044886 169.58063664 -92.29148397 169.21520073 -94.4453125 168.87109375 C-95.83225482 168.64311595 -97.21904861 168.4142332 -98.60571289 168.18457031 C-99.34226105 168.06327759 -100.0788092 167.94198486 -100.837677 167.8170166 C-117.49015506 165.05400854 -133.65856363 161.26383035 -149.93408203 156.80273438 C-152.55223962 156.11723492 -155.15500961 155.5402706 -157.80859375 155.015625 C-161.69435844 154.18583835 -165.08423638 152.76148869 -168.67431641 151.07910156 C-172.77519524 149.17632134 -176.9884981 147.54697199 -181.1875 145.875 C-182.05052734 145.52824219 -182.91355469 145.18148437 -183.80273438 144.82421875 C-188.16506053 143.08195842 -192.5200317 141.42244493 -197 140 C-197 139.34 -197 138.68 -197 138 C-197.88042969 137.73574219 -198.76085937 137.47148438 -199.66796875 137.19921875 C-213.50445454 132.21938154 -228.89281728 119.25201247 -237 107 C-237.34820041 105.33637583 -237.68404492 103.67004829 -238 102 C-238.66 101.67 -239.32 101.34 -240 101 C-240 99.35 -240 97.7 -240 96 C-240.66 95.67 -241.32 95.34 -242 95 C-241.74554953 78.06747781 -237.05083316 67.74315231 -225 56 C-223.99259766 54.99646484 -223.99259766 54.99646484 -222.96484375 53.97265625 C-195.62853515 28.3775138 -151.24474571 18.47061864 -116 11 C-115.07832031 10.79987305 -114.15664063 10.59974609 -113.20703125 10.39355469 C-112.33433594 10.20954102 -111.46164062 10.02552734 -110.5625 9.8359375 C-109.80066406 9.67399902 -109.03882813 9.51206055 -108.25390625 9.34521484 C-105.80541104 8.97019619 -103.47329235 8.94165735 -101 9 C-101.78144918 19.54956394 -105.55666482 28.38083801 -113 36 C-115.86026399 38.26351826 -118.85769355 40.15443303 -122 42 C-123.48218355 42.89083292 -124.96152998 43.78640961 -126.4375 44.6875 C-127.07558594 45.06261719 -127.71367187 45.43773437 -128.37109375 45.82421875 C-130.30152442 47.07311966 -130.30152442 47.07311966 -132 50 C-132.07905064 52.33199388 -132.08798769 54.66832622 -132 57 C-119.28932594 63.11183753 -101.30308967 57.86011933 -88.75 53.8125 C-78.42490876 49.90413213 -69.66378879 43.61455153 -64 34 C-60.47595239 26.16519078 -58.93606035 18.72841087 -58.4375 10.1875 C-58.37272461 9.14819336 -58.37272461 9.14819336 -58.30664062 8.08789062 C-58.20138547 6.39211314 -58.10027137 4.69607948 -58 3 C-54.84493858 2.06380187 -52.03413498 1.8942877 -48.75 1.9375 C-47.85796875 1.94652344 -46.9659375 1.95554687 -46.046875 1.96484375 C-45.37140625 1.97644531 -44.6959375 1.98804688 -44 2 C-43.42732828 22.8919127 -44.96979353 44.23908221 -59 61 C-59.71285156 61.65613281 -60.42570313 62.31226563 -61.16015625 62.98828125 C-63.27383345 65.2994145 -63.61456711 66.48418323 -63.875 69.5625 C-63.99488281 70.70912109 -63.99488281 70.70912109 -64.1171875 71.87890625 C-64.16324451 74.30541881 -64.16324451 74.30541881 -62 77 C-49.35465357 79.35508969 -35.3499743 73.98311519 -25 67 C-11.84083201 57.09192058 -3.72403597 42.21478323 -1 26 C-0.85708812 23.94366635 -0.75463062 21.88428808 -0.68359375 19.82421875 C-0.64169922 18.66728516 -0.59980469 17.51035156 -0.55664062 16.31835938 C-0.51732422 15.12017578 -0.47800781 13.92199219 -0.4375 12.6875 C-0.37272461 10.8612207 -0.37272461 10.8612207 -0.30664062 8.99804688 C-0.20078571 5.99882422 -0.09991003 2.99942657 0 0 Z " fill="#7CB9E5" transform="translate(441,664)"/>
        <path d="M0 0 C8.58852016 0.50252496 16.79138608 1.77393041 25.1875 3.625 C26.39857422 3.88933838 27.60964844 4.15367676 28.85742188 4.42602539 C66.40636564 12.7982267 117.15613544 25.08181055 140.82421875 58.58203125 C147.08241717 68.68909746 149.00390145 79.30124596 146.3125 90.984375 C140.40112493 106.84656477 126.1700079 117.82353274 112 126 C111.41766602 126.3412793 110.83533203 126.68255859 110.23535156 127.03417969 C102.56738693 131.48338737 94.65480401 135.11687022 86.4375 138.4375 C85.5923584 138.77982666 84.7472168 139.12215332 83.87646484 139.47485352 C79.55360418 141.17142296 75.59726923 142.25194513 71 143 C70.67 143.66 70.34 144.32 70 145 C67.98828125 145.7109375 67.98828125 145.7109375 65.3125 146.375 C59.56088802 147.84861562 53.86450671 149.47286374 48.1640625 151.1328125 C45.44428612 151.87823269 42.76349598 152.45229884 40 153 C38.45411344 153.35501561 36.90985818 153.71719845 35.3671875 154.0859375 C34.47644531 154.29476562 33.58570313 154.50359375 32.66796875 154.71875 C30.85954915 155.14366537 29.05217488 155.57306489 27.24609375 156.0078125 C17.91418085 158.17864047 8.46785072 159.57184699 -1 161 C-1.06986457 153.34974999 -1.12299481 145.69953354 -1.15543652 138.04903603 C-1.17101602 134.49562849 -1.19211071 130.94244106 -1.22631836 127.38916016 C-1.26549776 123.29327418 -1.27977284 119.19761526 -1.29296875 115.1015625 C-1.30845261 113.8407486 -1.32393646 112.57993469 -1.33988953 111.28091431 C-1.34243071 97.81770893 2.3484691 85.73461316 11.6875 75.6875 C15.52669169 72.0702269 19.75851153 69.7172944 24.484375 67.421875 C27.18130621 65.89752258 29.00551308 64.36502234 31 62 C31.66680368 58.95720628 31.66680368 58.95720628 31 56 C29.11922127 54.08743288 29.11922127 54.08743288 27 53 C27.66 51.68 28.32 50.36 29 49 C29.66 49 30.32 49 31 49 C31.28860072 45.32034081 31.38975727 42.76095466 29.6875 39.4375 C26.30719602 36.3716429 22.63757221 34.50280287 18.61328125 32.38671875 C9.13299314 27.3560726 4.15427603 18.49395979 0.62890625 8.640625 C-0.07518631 5.68431088 -0.04200054 3.02925601 0 0 Z " fill="#9BD9EF" transform="translate(556,672)"/>
        <path d="M0 0 C-0.78144918 10.54956394 -4.55666482 19.38083801 -12 27 C-14.86026399 29.26351826 -17.85769355 31.15443303 -21 33 C-22.48218355 33.89083292 -23.96152998 34.78640961 -25.4375 35.6875 C-26.07558594 36.06261719 -26.71367187 36.43773437 -27.37109375 36.82421875 C-29.30152442 38.07311966 -29.30152442 38.07311966 -31 41 C-31.07905064 43.33199388 -31.08798769 45.66832622 -31 48 C-29.68 48.66 -28.36 49.32 -27 50 C-27 50.66 -27 51.32 -27 52 C-27.66 52.4125 -28.32 52.825 -29 53.25 C-31.28240057 54.88683489 -31.28240057 54.88683489 -31.5625 57.875 C-30.79960878 62.11328453 -29.360175 63.33986146 -26 66 C-24.78361641 66.60954034 -23.55308429 67.19135961 -22.3125 67.75 C-10.35528801 73.51468224 -4.91371999 83.26095616 0 95 C1.04914462 98.34391929 1.15390604 101.46561077 1.20532227 104.96191406 C1.22526749 106.16285706 1.24521271 107.36380005 1.26576233 108.60113525 C1.29083107 110.53880768 1.29083107 110.53880768 1.31640625 112.515625 C1.33698963 113.85512921 1.35798646 115.19462713 1.37937927 116.53411865 C1.43445709 120.05215341 1.48392906 123.5702454 1.53222656 127.08837891 C1.58254625 130.68136664 1.63817756 134.27427173 1.69335938 137.8671875 C1.800766 144.91138655 1.90224949 151.9556598 2 159 C-11.29569519 156.83325029 -24.37522007 154.41427756 -37.375 150.875 C-39.96530793 150.18171927 -42.55692682 149.49346987 -45.1484375 148.8046875 C-46.93459473 148.32467285 -46.93459473 148.32467285 -48.75683594 147.83496094 C-51.44905251 147.14184285 -54.12589301 146.54681335 -56.8515625 146.0078125 C-60.72049441 145.180522 -64.09954945 143.75431266 -67.67431641 142.07910156 C-71.77519524 140.17632134 -75.9884981 138.54697199 -80.1875 136.875 C-81.05052734 136.52824219 -81.91355469 136.18148437 -82.80273438 135.82421875 C-87.16506053 134.08195842 -91.5200317 132.42244493 -96 131 C-96 130.34 -96 129.68 -96 129 C-96.88042969 128.73574219 -97.76085937 128.47148438 -98.66796875 128.19921875 C-112.50445454 123.21938154 -127.89281728 110.25201247 -136 98 C-136.34820041 96.33637583 -136.68404492 94.67004829 -137 93 C-137.66 92.67 -138.32 92.34 -139 92 C-139 90.35 -139 88.7 -139 87 C-139.66 86.67 -140.32 86.34 -141 86 C-140.74554953 69.06747781 -136.05083316 58.74315231 -124 47 C-122.99259766 45.99646484 -122.99259766 45.99646484 -121.96484375 44.97265625 C-94.62853515 19.3775138 -50.24474571 9.47061864 -15 2 C-13.61748047 1.69980957 -13.61748047 1.69980957 -12.20703125 1.39355469 C-11.33433594 1.20954102 -10.46164062 1.02552734 -9.5625 0.8359375 C-8.80066406 0.67399902 -8.03882813 0.51206055 -7.25390625 0.34521484 C-4.80541104 -0.02980381 -2.47329235 -0.05834265 0 0 Z " fill="#9BD9EF" transform="translate(340,673)"/>
        <path d="M0 0 C13.48668396 7.22742162 21.34734784 19.09815683 26.02880859 33.3515625 C32.23807227 54.08410777 30.001352 75.95279793 20.33984375 95.25390625 C15.01439923 104.33579335 7.07356927 113.59843119 -3.33203125 116.85546875 C-12.86038936 118.48616091 -21.82200639 118.14265667 -29.9296875 112.7421875 C-44.39942216 102.06385927 -51.24829086 86.29096283 -54.24609375 68.84375 C-56.41679674 50.02416465 -53.89584805 29.81945423 -42.22265625 14.31640625 C-41.0564052 12.94389683 -39.86957717 11.58853154 -38.66015625 10.25390625 C-37.84417969 9.30064453 -37.84417969 9.30064453 -37.01171875 8.328125 C-27.30732774 -2.31025669 -13.2329852 -5.9997895 0 0 Z " fill="#FEFDFC" transform="translate(573.66015625,293.74609375)"/>
        <path d="M0 0 C12.40217689 7.66744269 20.68991625 20.97113908 24.0390625 35.046875 C28.35098541 55.68403838 27.0608019 77.45532151 16.296875 95.921875 C9.63642177 105.82254872 2.43458782 112.18847073 -9 116 C-20.21062354 116.95911365 -29.21633578 114.99234517 -38.05859375 107.8828125 C-47.6020051 98.62743167 -52.66549573 86.63957363 -56 74 C-56.17273438 73.40026367 -56.34546875 72.80052734 -56.5234375 72.18261719 C-60.4495301 54.2014349 -56.79162357 31.59032736 -47.1796875 16.05859375 C-35.45125591 -0.8441459 -19.62511648 -9.0695708 0 0 Z " fill="#FEFDFD" transform="translate(353,295)"/>
        <path d="M0 0 C4.62 0 9.24 0 14 0 C14.01417969 1.67964844 14.02835937 3.35929688 14.04296875 5.08984375 C14.41837974 26.63523944 17.13227121 45.40354522 32.5078125 61.7109375 C38.7903451 67.48141415 46.33251779 71.38326311 54 75 C54 75.66 54 76.32 54 77 C53.03320312 77.47308594 52.06640625 77.94617188 51.0703125 78.43359375 C33.77787596 87.11765592 23.3956964 98.48362054 17 117 C14.97447237 123.70941157 14.66105478 129.95152706 14.5859375 136.9375 C14.56657135 138.05817871 14.5472052 139.17885742 14.5272522 140.33349609 C14.46779868 143.88892163 14.42120814 147.44438013 14.375 151 C14.33678873 153.4205865 14.2977352 155.84115987 14.2578125 158.26171875 C14.16212529 164.17437159 14.07796829 170.08708804 14 176 C9.38 176 4.76 176 0 176 C-0.01458252 174.65478271 -0.02916504 173.30956543 -0.04418945 171.92358398 C-0.10279823 166.86327436 -0.18001912 161.8033811 -0.26245117 156.7434082 C-0.29540943 154.56639435 -0.32352866 152.38930101 -0.34643555 150.2121582 C-0.37358489 127.23193031 -0.37358489 127.23193031 -7.625 105.6875 C-7.97199951 105.02435791 -8.31899902 104.36121582 -8.67651367 103.67797852 C-15.96165814 90.30696397 -27.05274898 82.54446275 -41 77 C-38.53128981 73.29693472 -36.53087693 72.68889462 -32.5 70.875 C-16.57255383 63.26383491 -8.90365695 50.73766782 -3.1640625 34.6015625 C-1.54595665 29.59520815 -0.86481222 25.0795545 -0.68359375 19.82421875 C-0.62075195 18.08881836 -0.62075195 18.08881836 -0.55664062 16.31835938 C-0.51732422 15.12017578 -0.47800781 13.92199219 -0.4375 12.6875 C-0.37272461 10.8612207 -0.37272461 10.8612207 -0.30664062 8.99804688 C-0.20078571 5.99882422 -0.09991003 2.99942657 0 0 Z " fill="#9AD8EE" transform="translate(441,664)"/>
        <path d="M0 0 C7.83143468 5.14676879 12.02743346 12.85452562 15.19921875 21.4453125 C15.44542969 22.11175781 15.69164062 22.77820313 15.9453125 23.46484375 C20.0546611 36.92650295 16.64012142 52.32989304 10.19921875 64.4453125 C6.08898499 70.35102311 1.2984854 75.4819622 -5.80078125 77.4453125 C-12.65965836 78.48619641 -18.11955726 77.43400518 -23.80078125 73.4453125 C-29.7107158 68.80355141 -32.95187744 63.32233671 -35.80078125 56.4453125 C-36.28224609 55.34123047 -36.28224609 55.34123047 -36.7734375 54.21484375 C-41.26214742 42.08488811 -39.96934733 27.0826119 -34.80078125 15.4453125 C-30.98105629 8.06578469 -25.53504684 2.23731528 -18.36328125 -1.9921875 C-11.79156395 -3.43475959 -6.06259849 -3.02600902 0 0 Z " fill="#AC5D52" transform="translate(348.80078125,314.5546875)"/>
        <path d="M0 0 C9.13243538 3.11452998 13.62836113 9.10586103 17.83984375 17.50390625 C19.02870815 20.46224324 20.00785847 23.42735637 20.83984375 26.50390625 C21.02417969 27.08398438 21.20851563 27.6640625 21.3984375 28.26171875 C24.10720245 42.02128584 21.56439165 56.8590923 13.83984375 68.50390625 C9.54482402 74.88507842 3.83842656 78.47319072 -3.6796875 80.0234375 C-10.7007756 80.49888126 -15.78644147 77.86423883 -21.16015625 73.50390625 C-30.83896444 63.59662834 -33.58111154 50.57768969 -33.52368164 37.20751953 C-33.28356575 25.52614805 -30.24526707 15.21820857 -22.16015625 6.50390625 C-15.07933432 0.8160329 -9.1320999 -2.09724537 0 0 Z " fill="#AC5D52" transform="translate(567.16015625,312.49609375)"/>
        <path d="M0 0 C6.93 0.495 6.93 0.495 14 1 C14.03738281 2.02738281 14.07476563 3.05476562 14.11328125 4.11328125 C14.73381137 18.16276323 16.86871803 31.31710355 26.78515625 41.98828125 C37.48885547 51.7103361 50.93423216 55.90884516 65 58 C65 58.66 65 59.32 65 60 C63.47632813 60.23783203 63.47632813 60.23783203 61.921875 60.48046875 C45.84988687 63.13723878 32.20002874 68.6413476 21 81 C20.7834375 79.2984375 20.7834375 79.2984375 20.5625 77.5625 C20.41361328 76.46615234 20.41361328 76.46615234 20.26171875 75.34765625 C20 73 20 73 19.95703125 70.74609375 C19.7406532 64.82145677 17.88444328 62.16777543 13.8359375 57.9375 C-0.45689992 42.85399498 -0.37207015 19.38898905 0 0 Z " fill="#99D6EC" transform="translate(499,665)"/>
        <path d="M0 0 C0.89203125 0.00902344 1.7840625 0.01804687 2.703125 0.02734375 C3.37859375 0.03894531 4.0540625 0.05054688 4.75 0.0625 C5.32267172 20.9544127 3.78020647 42.30158221 -10.25 59.0625 C-10.96671875 59.72507812 -11.6834375 60.38765625 -12.421875 61.0703125 C-14.49735011 63.33204819 -14.78054735 64.30333891 -14.9375 67.3125 C-14.99164063 68.08980469 -15.04578125 68.86710938 -15.1015625 69.66796875 C-15.15054688 70.45816406 -15.19953125 71.24835938 -15.25 72.0625 C-15.4261215 73.58469299 -15.61280771 75.10571949 -15.8125 76.625 C-15.956875 77.759375 -16.10125 78.89375 -16.25 80.0625 C-16.91 79.36125 -17.57 78.66 -18.25 77.9375 C-30.13943677 66.14797447 -44.48852099 62.26280582 -60.25 58.0625 C-56.91367184 55.83828122 -54.67038236 55.4568831 -50.75 54.75 C-37.93110062 52.10964997 -24.82242015 46.20100173 -17.25 35.0625 C-10.70103979 24.1111832 -9.87616044 13.56923098 -9.25 1.0625 C-6.09493858 0.12630187 -3.28413498 -0.0432123 0 0 Z " fill="#98D5EB" transform="translate(392.25,665.9375)"/>
        <path d="M0 0 C0.66 0.33 1.32 0.66 2 1 C1.51391769 2.15927002 1.02783539 3.31854004 0.52702332 4.51293945 C-1.02808357 8.67848812 -1.39461917 12.32291012 -1.43237305 16.79296875 C-1.4425647 17.52565475 -1.45275635 18.25834076 -1.46325684 19.01322937 C-1.49314809 21.4047331 -1.50261561 23.79583479 -1.51171875 26.1875 C-1.52858323 27.85759792 -1.54673584 29.52768329 -1.56611633 31.19775391 C-1.61343058 35.57061844 -1.64335965 39.94343205 -1.66955566 44.31646729 C-1.69945541 48.78790337 -1.74595319 53.25916431 -1.79101562 57.73046875 C-1.87683717 66.48689273 -1.94427593 75.24333299 -2 84 C-3.72807318 84.33895656 -5.45751974 84.67091525 -7.1875 85 C-8.15042969 85.185625 -9.11335938 85.37125 -10.10546875 85.5625 C-12.7934206 85.96877612 -15.28771019 86.07933572 -18 86 C-18.33 85.34 -18.66 84.68 -19 84 C-18.01 84 -17.02 84 -16 84 C-16.0314209 82.09661865 -16.0314209 82.09661865 -16.06347656 80.15478516 C-16.13696197 75.35754091 -16.18218627 70.56034409 -16.21972656 65.76269531 C-16.23959875 63.70303936 -16.2667061 61.64343793 -16.30175781 59.58398438 C-16.65761287 38.10708493 -14.75753141 16.84144794 0 0 Z " fill="#9AD8EF" transform="translate(515,754)"/>
        <path d="M0 0 C11.64490825 10.27491905 16.15266696 26.58642196 17.18228149 41.67045593 C17.24443812 44.33710649 17.25170417 46.99679279 17.23046875 49.6640625 C17.22978142 51.10209732 17.22978142 51.10209732 17.2290802 52.56918335 C17.22608681 54.57071185 17.21828948 56.57223863 17.20581055 58.57373047 C17.18733737 61.65210084 17.18530275 64.73017325 17.18554688 67.80859375 C17.18063867 69.76041929 17.17481343 71.71224279 17.16796875 73.6640625 C17.16685593 74.5868399 17.1657431 75.50961731 17.16459656 76.46035767 C17.11611727 82.88388273 17.11611727 82.88388273 16 84 C14.37747508 84.09886353 12.75052727 84.12971167 11.125 84.125 C10.24070312 84.12757813 9.35640625 84.13015625 8.4453125 84.1328125 C6 84 6 84 3 83 C2.99191315 82.13715393 2.98382629 81.27430786 2.97549438 80.38531494 C2.89717114 72.20675514 2.80977051 64.02835158 2.71247292 55.84999466 C2.66277756 51.64661126 2.61644795 47.44324978 2.578125 43.23974609 C2.54093062 39.17419153 2.49448419 35.10883347 2.44193649 31.0434494 C2.4235721 29.50155882 2.40839987 27.95962642 2.39665604 26.4176712 C2.32598171 17.44927825 1.83018961 8.81803024 0 0 Z " fill="#9AD8EF" transform="translate(380,754)"/>
        <path d="M0 0 C1.91015625 0.19921875 1.91015625 0.19921875 4 1 C5.30859375 2.70703125 5.30859375 2.70703125 6.4375 4.8125 C8.79584204 8.84917135 11.22164031 12.14865997 15.88671875 13.578125 C21.96965204 14.79246288 27.57062776 14.58061846 33.0703125 11.5546875 C36.93242982 8.4431031 39.4388422 4.1938959 42 0 C43.32 0.33 44.64 0.66 46 1 C46.83988427 3.36217452 47.17347191 4.55367122 46.25 6.9296875 C41.9418025 13.63431987 36.99808754 19.03294878 29.2265625 21.5234375 C21.4855198 23.18029225 15.15212668 22.43598743 8.23046875 18.5625 C3.61536393 15.32950188 0.19447063 11.20016738 -2 6 C-1.47368421 1.47368421 -1.47368421 1.47368421 0 0 Z " fill="#AF6155" transform="translate(424,426)"/>
        <path d="M0 0 C2.74972158 4.12458238 3.76786884 8.45052785 5.125 13.1875 C5.40214844 14.10853516 5.67929688 15.02957031 5.96484375 15.97851562 C7.55572072 21.49956404 8.50455666 26.25188614 8 32 C5.9375 35.0625 5.9375 35.0625 3 37 C-0.54735021 37 -2.86371678 36.7836436 -5.8125 34.75 C-8.09131147 31.39175151 -9.17324921 29.06824103 -8.50854492 24.96972656 C-8.16927979 23.87112305 -7.83001465 22.77251953 -7.48046875 21.640625 C-7.11759766 20.44308594 -6.75472656 19.24554687 -6.38085938 18.01171875 C-5.98705078 16.77035156 -5.59324219 15.52898437 -5.1875 14.25 C-4.80529297 12.99316406 -4.42308594 11.73632812 -4.02929688 10.44140625 C-1.181139 1.181139 -1.181139 1.181139 0 0 Z " fill="#9BDAEF" transform="translate(164,493)"/>
        <path d="M0 0 C3.6578218 2.03993908 5.66946174 3.50419262 8 7 C8.52406828 10.93051214 8.14790087 12.72532696 6.25 16.25 C3.25670518 19.90847144 1.71641956 20.81740217 -2.9375 21.3125 C-6.45778025 20.95328773 -8.21797817 20.16379476 -11 18 C-13.57189679 14.57080428 -13.502142 11.16060514 -13 7 C-9.6691195 1.45265999 -6.44860358 -0.62005804 0 0 Z " fill="#AD5E53" transform="translate(449,394)"/>
        <path d="M0 0 C0.80824219 0.11085938 1.61648438 0.22171875 2.44921875 0.3359375 C3.37154297 0.47902344 3.37154297 0.47902344 4.3125 0.625 C5.4375 2.9375 5.4375 2.9375 6.3125 5.625 C4.3125 8.625 4.3125 8.625 2.2890625 9.2421875 C-4.11778033 9.94459884 -4.11778033 9.94459884 -7.25 8.1875 C-7.724375 7.671875 -8.19875 7.15625 -8.6875 6.625 C-8.375 4.25 -8.375 4.25 -7.6875 1.625 C-4.33422361 -0.61051759 -3.78006343 -0.54783528 0 0 Z " fill="#BAD8CD" transform="translate(257.6875,545.375)"/>
        <path d="M0 0 C2.4375 1.5 2.4375 1.5 4 3 C3.25 7.75 3.25 7.75 1 10 C-6.05674282 10.56005895 -6.05674282 10.56005895 -9 8.8125 C-10.35833436 6.35051898 -10.42552252 4.76589638 -10 2 C-6.28986601 -0.47342266 -4.38939738 -0.38503486 0 0 Z " fill="#BAD8CD" transform="translate(283,554)"/>
        <path d="M0 0 C1.97265625 0.265625 1.97265625 0.265625 4.97265625 2.265625 C5.16015625 5.390625 5.16015625 5.390625 4.97265625 8.265625 C1.5653755 10.36241315 -1.05941796 10.6789506 -5.02734375 10.265625 C-7.40234375 8.765625 -7.40234375 8.765625 -9.02734375 7.265625 C-8.02215459 0.89942699 -6.48504426 0.04848631 0 0 Z " fill="#BBD9CE" transform="translate(229.02734375,515.734375)"/>
        <path d="M0 0 C1.17369141 -0.02513672 1.17369141 -0.02513672 2.37109375 -0.05078125 C5.05242421 0.39371738 5.94333368 1.16579884 7.5625 3.3125 C7.47727018 6.0398543 6.75372744 7.09920785 4.9375 9.125 C1.48496609 10.85126696 -0.76249632 10.24795548 -4.4375 9.3125 C-6.4375 8 -6.4375 8 -7.4375 6.3125 C-6.98983231 1.38815537 -4.68000562 0.02305421 0 0 Z " fill="#B9D7CC" transform="translate(239.4375,531.6875)"/>
        <path d="M0 0 C2.375 1.1875 2.375 1.1875 4 3 C4.4375 5.5625 4.4375 5.5625 4 8 C0.19470436 10.53686376 -2.53909062 10.59355135 -7 10 C-9.0625 8.8125 -9.0625 8.8125 -10 7 C-9.875 4.4375 -9.875 4.4375 -9 2 C-5.51131349 -0.32579101 -4.10281481 -0.41865457 0 0 Z " fill="#BBDACE" transform="translate(219,499)"/>
        <path d="M0 0 C1.17369141 -0.02513672 1.17369141 -0.02513672 2.37109375 -0.05078125 C5.06317642 0.39549983 5.95978211 1.1340485 7.5625 3.3125 C7.4375 5.875 7.4375 5.875 6.5625 8.3125 C3.07381349 10.63829101 1.66531481 10.73115457 -2.4375 10.3125 C-4.8125 9.125 -4.8125 9.125 -6.4375 7.3125 C-6.8125 4.75 -6.8125 4.75 -6.4375 2.3125 C-4.02263057 -0.10236943 -3.31042211 0.0163075 0 0 Z " fill="#B9D8CC" transform="translate(203.4375,484.6875)"/>
        <path d="M0 0 C3.26023324 0.22484367 4.93132641 0.5260489 7.625 2.25 C7.875 4.5625 7.875 4.5625 7.625 7.25 C5.37548621 9.75907308 3.97249528 10.20656309 0.625 10.625 C-2.64343543 10.21644557 -3.98723142 9.45409407 -6.375 7.25 C-5.61910491 2.46266441 -5.28009155 0.39111789 0 0 Z " fill="#BCDBCF" transform="translate(302.375,553.75)"/>
        <path d="M0 0 C2.4375 1.5 2.4375 1.5 4 3 C3.6875 5.375 3.6875 5.375 3 8 C-0.68717438 10.45811625 -2.64345704 10.31118164 -7 10 C-7.99 9.34 -8.98 8.68 -10 8 C-10.4305182 5.20163168 -10.37794659 3.64473241 -8.9375 1.1875 C-5.89729821 -0.67584949 -3.48171989 -0.36649683 0 0 Z " fill="#BCDBD0" transform="translate(330,550)"/>
        <path d="M0 0 C1.17369141 -0.02513672 1.17369141 -0.02513672 2.37109375 -0.05078125 C5.05245534 0.39372254 5.95157547 1.15762693 7.5625 3.3125 C7.29213853 6.28647616 6.70803974 7.16696026 4.5625 9.3125 C2.50390625 9.61328125 2.50390625 9.61328125 0.125 9.625 C-1.04869141 9.65013672 -1.04869141 9.65013672 -2.24609375 9.67578125 C-4.92745534 9.23127746 -5.82657547 8.46737307 -7.4375 6.3125 C-6.98983231 1.38815537 -4.68000562 0.02305421 0 0 Z " fill="#BCDBCF" transform="translate(183.4375,473.6875)"/>
      </g>
    </g>
  </g>

  <!-- ============================== -->
  <!-- 3 BLACK TENTACLES (extensions from original tentacle tips) -->
  <!-- ============================== -->

  <!-- Ext 1: To pen at glass -->
  <g>
    <path d="M118 422 C155 438 210 455 270 468 C310 476 342 480 365 483
             C360 488 345 488 320 482 C282 472 225 458 175 440
             C142 428 125 424 118 422 Z" fill="#222"/>
    <path d="M118 424 C155 440 210 457 270 470 C310 478 342 482 363 485" fill="none" stroke="#444" stroke-width="2.5" stroke-linecap="round" opacity="0.25"/>
    <g class="anim-pen" transform="translate(342, 505) rotate(-50)">
      <rect x="0" y="4" width="40" height="6" rx="2.5" fill="url(#penBody)"/>
      <path d="M40 3.5 L50 6 L50 6 L40 8 Z" fill="#444"/>
      <path d="M50 5.5 L56 6 L56 6 L50 6.5 Z" fill="#111"/>
    </g>
    <path class="anim-pen" d="M365 483 Q371 476 368 472 Q363 470 360 474 Q357 478 362 481 Z" fill="#222"/>
  </g>

  <!-- Ext 2: To keyboard -->
  <g>
    <path d="M162 425 C205 448 265 478 320 505 C348 518 370 526 385 530
             C379 535 366 533 348 526 C320 514 275 492 225 462
             C190 442 168 432 162 425 Z" fill="#222"/>
    <path d="M162 427 C205 450 265 480 320 507 C348 520 370 528 383 532" fill="none" stroke="#444" stroke-width="2.5" stroke-linecap="round" opacity="0.25"/>
  </g>

  <!-- Ext 3: Holding mouse (animated) -->
  <g class="anim-mouse-hold">
    <path d="M140 424 C180 442 238 460 295 474
             C328 482 355 486 372 488
             C365 493 350 493 328 487
             C295 478 248 466 200 450
             C166 438 146 428 140 424 Z" fill="#222"/>
    <path d="M140 426 C180 444 238 462 295 476 C328 484 355 488 370 490" fill="none" stroke="#444" stroke-width="2.5" stroke-linecap="round" opacity="0.25"/>
    <g transform="translate(372, 490) rotate(15)">
      <path d="M10 3 C18 0 34 0 42 3 L42 28 C42 38 34 43 26 43 C18 43 10 38 10 28 Z" fill="url(#mouseBody)" stroke="#888" stroke-width="0.8"/>
      <path d="M12 6 L24 6 L24 17 L12 17 Z" fill="#d0d0d0" rx="1.5"/>
      <path d="M26 6 L38 6 L38 17 L26 17 Z" fill="#d0d0d0" rx="1.5"/>
      <line x1="25" y1="6" x2="25" y2="17" stroke="#aaa" stroke-width="0.4"/>
      <rect x="24" y="8" width="3" height="6" rx="1.5" fill="#bbb"/>
    </g>
    <path d="M372 488 Q378 484 376 480 Q372 478 369 482 Q366 486 370 488 Z" fill="#222"/>
  </g>

  <rect x="0" y="0" width="1200" height="800" fill="none" stroke="#000" stroke-width="120" opacity="0.05"/>
</svg>
